# Blender v2.80 (sub 41) OBJ File: 'homme.blend'
# www.blender.org
mtllib aigle.mtl
o Cube.001_Cube.002
v -0.398749 3.973674 6.389246
v -0.398749 3.973674 6.809072
v 0.398747 3.973674 6.389246
v 0.398747 3.973674 6.809072
v -0.398749 3.553849 6.389246
v -0.398749 3.553849 6.809072
v 0.398747 3.553849 6.389246
v 0.398747 3.553849 6.809072
v 0.712427 3.956090 6.791488
v 0.712427 3.956090 6.406830
v 0.712427 3.571433 6.406830
v 0.712427 3.571433 6.791488
v 1.064776 3.880081 6.715478
v 1.064776 3.880081 6.482840
v 1.064776 3.647443 6.482840
v 1.064776 3.647443 6.715478
v 1.210708 3.838453 6.607017
v 1.122835 3.838453 6.486215
v 1.122835 3.689071 6.486215
v 1.210708 3.689071 6.607017
v 1.263765 3.802717 6.485850
v 1.191992 3.802717 6.455539
v 1.191992 3.724806 6.455539
v 1.263765 3.724806 6.485850
v 1.261280 3.781401 6.436942
v 1.228782 3.781401 6.423217
v 1.228782 3.746123 6.423217
v 1.261280 3.746123 6.436942
v -0.799463 3.973674 6.576188
v -0.834793 3.973674 6.666965
v -0.834793 3.553849 6.666965
v -0.799463 3.553849 6.576188
v -1.021047 3.973674 6.489948
v -1.056377 3.973674 6.580724
v -1.056377 3.553849 6.580724
v -1.021047 3.553849 6.489948
v -0.799463 3.973674 6.576188
v -0.834793 3.973674 6.666965
v -0.834793 3.553849 6.666965
v -0.799463 3.553849 6.576188
v -1.021047 3.973674 6.489948
v -1.056377 3.973674 6.580724
v -1.056377 3.553849 6.580724
v -1.021047 3.553849 6.489948
v -0.825338 4.093910 6.566117
v -0.860668 4.093910 6.656894
v -1.029736 4.002095 6.486567
v -1.065066 4.002095 6.577343
v -0.887174 4.227125 6.542051
v -0.922504 4.227125 6.632827
v -1.040814 4.055789 6.482255
v -1.076144 4.055789 6.573031
v -1.043485 4.279222 6.512392
v -1.057739 4.279222 6.549017
v -1.105474 4.210093 6.488266
v -1.119728 4.210093 6.524891
v -1.084217 3.882716 6.488009
v -1.104238 3.882716 6.539451
v -1.104238 3.644808 6.539451
v -1.084217 3.644808 6.488009
v -1.124478 3.850849 6.480274
v -1.139135 3.850849 6.517935
v -1.139135 3.676675 6.517935
v -1.124478 3.676675 6.480274
v -0.833405 3.553517 6.667506
v -0.798075 3.553517 6.576729
v -1.054988 3.553517 6.581266
v -1.019658 3.553517 6.490489
v -0.859280 3.433281 6.657435
v -0.823950 3.433281 6.566659
v -1.063677 3.525096 6.577884
v -1.028347 3.525096 6.487108
v -0.921115 3.300066 6.633369
v -0.885785 3.300066 6.542593
v -1.074755 3.471402 6.573573
v -1.039425 3.471402 6.482796
v -1.056351 3.247968 6.549559
v -1.042096 3.247968 6.512933
v -1.118340 3.317097 6.525433
v -1.104085 3.317097 6.488807
v 0.361406 3.990324 6.721356
v 0.349134 3.992154 6.578526
v -0.279314 3.961195 6.585964
v -0.296607 3.959348 6.644605
v 0.202963 4.447700 6.846770
v 0.233124 4.450221 6.730595
v -0.232368 4.266210 6.565960
v -0.261219 4.258648 6.607599
v -0.094914 4.989934 6.759069
v -0.073998 4.994401 6.670568
v -0.284139 4.668380 6.574405
v -0.300147 4.654982 6.607163
v -0.353788 5.064148 6.665766
v -0.342746 5.066505 6.619045
v -0.453683 4.894394 6.568279
v -0.462134 4.887321 6.585572
v -0.459738 5.067945 6.617412
v -0.455167 5.068921 6.598073
v -0.501087 4.997680 6.577059
v -0.504585 4.994752 6.584218
v 0.285282 3.973674 6.749229
v 0.349134 3.992154 6.578526
v -0.279314 3.961195 6.585964
v -0.296607 3.959348 6.644605
v 0.202963 4.447700 6.846770
v 0.233124 4.450221 6.730595
v -0.232368 4.266210 6.565960
v -0.261219 4.258648 6.607599
v -0.094914 4.989934 6.759069
v -0.073998 4.994401 6.670568
v -0.284139 4.668380 6.574405
v -0.300147 4.654982 6.607163
v -0.353788 5.064148 6.665766
v -0.342746 5.066505 6.619045
v -0.453683 4.894394 6.568279
v -0.462134 4.887321 6.585572
v -0.459738 5.067945 6.617412
v -0.455167 5.068921 6.598073
v -0.501087 4.997680 6.577059
v -0.504585 4.994752 6.584218
v -0.398749 3.550411 6.456405
v 0.398747 3.550411 6.456405
v 0.361406 3.533761 6.544120
v 0.349134 3.531930 6.686949
v -0.279314 3.562889 6.679513
v -0.296607 3.564736 6.620871
v 0.202963 3.076385 6.418706
v 0.233124 3.073864 6.534881
v -0.232368 3.257874 6.699516
v -0.261219 3.265437 6.657877
v -0.094914 2.534150 6.506407
v -0.073998 2.529684 6.594907
v -0.284139 2.855705 6.691071
v -0.300147 2.869103 6.658312
v -0.353788 2.459937 6.599710
v -0.342746 2.457579 6.646431
v -0.453683 2.629690 6.697197
v -0.462134 2.636764 6.679904
v -0.459738 2.456140 6.648064
v -0.455167 2.455163 6.667403
v -0.501087 2.526405 6.688417
v -0.504585 2.529333 6.681259
v 0.285282 3.550411 6.516247
v 0.349134 3.531930 6.686949
v -0.279314 3.562889 6.679513
v -0.296607 3.564736 6.620871
v 0.202963 3.076385 6.418706
v 0.233124 3.073864 6.534881
v -0.232368 3.257874 6.699516
v -0.261219 3.265437 6.657877
v -0.094914 2.534150 6.506407
v -0.073998 2.529684 6.594907
v -0.284139 2.855705 6.691071
v -0.300147 2.869103 6.658312
v -0.353788 2.459937 6.599710
v -0.342746 2.457579 6.646431
v -0.453683 2.629690 6.697197
v -0.462134 2.636764 6.679904
v -0.459738 2.456140 6.648064
v -0.455167 2.455163 6.667403
v -0.501087 2.526405 6.688417
v -0.504585 2.529333 6.681259
vt 0.625000 0.500000
vt 0.375000 0.500000
vt 0.375000 0.500000
vt 0.625000 0.500000
vt 0.375000 0.500000
vt 0.625000 0.500000
vt 0.125000 0.500000
vt 0.125000 0.500000
vt 0.875000 0.500000
vt 0.875000 0.500000
vt 0.375000 0.250000
vt 0.625000 0.250000
vt 0.625000 0.250000
vt 0.375000 0.250000
vt 0.875000 0.500000
vt 0.625000 0.500000
vt 0.875000 0.500000
vt 0.125000 0.500000
vt 0.625000 0.250000
vt 0.375000 0.250000
vt 0.375000 0.250000
vt 0.625000 0.250000
vt 0.375000 0.500000
vt 0.125000 0.500000
vt 0.875000 0.500000
vt 0.625000 0.500000
vt 0.375000 0.250000
vt 0.625000 0.250000
vt 0.375000 0.500000
vt 0.125000 0.500000
vt 0.625000 0.750000
vt 0.875000 0.750000
vt 0.875000 0.750000
vt 0.625000 0.750000
vt 0.125000 0.750000
vt 0.375000 0.750000
vt 0.375000 0.750000
vt 0.125000 0.750000
vt 0.875000 0.750000
vt 0.875000 0.750000
vt 0.125000 0.750000
vt 0.375000 0.750000
vt 0.375000 0.750000
vt 0.375000 0.750000
vt 0.625000 0.750000
vt 0.625000 0.750000
vt 0.125000 0.750000
vt 0.125000 0.750000
vt 0.125000 0.750000
vt 0.125000 0.750000
vt 0.375000 1.000000
vt 0.625000 1.000000
vt 0.625000 1.000000
vt 0.375000 1.000000
vt 0.625000 0.000000
vt 0.375000 0.000000
vt 0.375000 0.000000
vt 0.625000 0.000000
vt 0.875000 0.750000
vt 0.875000 0.750000
vt 0.875000 0.750000
vt 0.875000 0.750000
vt 0.625000 1.000000
vt 0.375000 1.000000
vt 0.375000 0.000000
vt 0.625000 0.000000
vt 0.125000 0.750000
vt 0.125000 0.750000
vt 0.125000 0.750000
vt 0.125000 0.750000
vt 0.375000 0.000000
vt 0.625000 0.000000
vt 0.625000 1.000000
vt 0.375000 1.000000
vt 0.625000 0.000000
vt 0.375000 0.000000
vt 0.375000 0.000000
vt 0.625000 0.000000
vt 0.625000 1.000000
vt 0.375000 1.000000
vt 0.875000 0.750000
vt 0.875000 0.750000
vt 0.375000 0.750000
vt 0.125000 0.750000
vt 0.375000 1.000000
vt 0.625000 1.000000
vt 0.875000 0.750000
vt 0.625000 0.750000
vt 0.625000 0.750000
vt 0.625000 1.000000
vt 0.375000 1.000000
vt 0.875000 0.750000
vt 0.125000 0.750000
vt 0.125000 0.750000
vt 0.125000 0.750000
vt 0.125000 0.750000
vt 0.875000 0.750000
vt 0.875000 0.750000
vt 0.875000 0.750000
vt 0.875000 0.750000
vt 0.875000 0.750000
vt 0.875000 0.750000
vt 0.375000 1.000000
vt 0.625000 1.000000
vt 0.625000 1.000000
vt 0.375000 1.000000
vt 0.625000 0.000000
vt 0.375000 0.000000
vt 0.375000 0.000000
vt 0.625000 0.000000
vt 0.125000 0.750000
vt 0.125000 0.750000
vt 0.125000 0.750000
vt 0.125000 0.750000
vt 0.375000 0.000000
vt 0.625000 0.000000
vt 0.625000 1.000000
vt 0.375000 1.000000
vt 0.625000 0.000000
vt 0.375000 0.000000
vt 0.375000 0.000000
vt 0.625000 0.000000
vt 0.625000 1.000000
vt 0.375000 1.000000
vt 0.875000 0.750000
vt 0.875000 0.750000
vt 0.375000 0.000000
vt 0.625000 0.000000
vt 0.504155 0.046219
vt 0.476463 0.052947
vt 0.518002 0.216673
vt 0.625000 0.250000
vt 0.375000 0.250000
vt 0.625000 0.500000
vt 0.375000 0.500000
vt 0.625000 0.750000
vt 0.375000 0.750000
vt 0.875000 0.750000
vt 0.125000 0.500000
vt 0.125000 0.750000
vt 0.875000 0.500000
vt 0.589365 0.214431
vt 0.589365 0.214431
vt 0.504155 0.046219
vt 0.589365 0.214431
vt 0.504155 0.046219
vt 0.476463 0.052947
vt 0.518002 0.216673
vt 0.476463 0.052947
vt 0.504155 0.046219
vt 0.476463 0.052947
vt 0.518002 0.216673
vt 0.589365 0.214431
vt 0.518002 0.216673
vt 0.518002 0.216673
vt 0.589365 0.214431
vt 0.476463 0.052947
vt 0.504155 0.046219
vt 0.504155 0.046219
vt 0.589365 0.214431
vt 0.589365 0.214431
vt 0.504155 0.046219
vt 0.589365 0.214431
vt 0.504155 0.046219
vt 0.518002 0.216673
vt 0.476463 0.052947
vt 0.476463 0.052947
vt 0.518002 0.216673
vt 0.476463 0.052947
vt 0.504155 0.046219
vt 0.476463 0.052947
vt 0.518002 0.216673
vt 0.589365 0.214431
vt 0.518002 0.216673
vt 0.518002 0.216673
vt 0.589365 0.214431
vt 0.476463 0.052947
vt 0.504155 0.046219
vt 0.625000 0.250000
vt 0.518002 0.216673
vt 0.589365 0.214431
vt 0.504155 0.046219
vt 0.625000 0.000000
vt 0.589365 0.214431
vt 0.504155 0.046219
vt 0.589365 0.214431
vt 0.504155 0.046219
vt 0.476463 0.052947
vt 0.476463 0.052947
vt 0.518002 0.216673
vt 0.476463 0.052947
vt 0.504155 0.046219
vt 0.476463 0.052947
vt 0.518002 0.216673
vt 0.589365 0.214431
vt 0.518002 0.216673
vt 0.518002 0.216673
vt 0.589365 0.214431
vt 0.476463 0.052947
vt 0.504155 0.046219
vt 0.504155 0.046219
vt 0.589365 0.214431
vt 0.589365 0.214431
vt 0.504155 0.046219
vt 0.589365 0.214431
vt 0.504155 0.046219
vt 0.518002 0.216673
vt 0.476463 0.052947
vt 0.476463 0.052947
vt 0.518002 0.216673
vt 0.476463 0.052947
vt 0.504155 0.046219
vt 0.476463 0.052947
vt 0.518002 0.216673
vt 0.589365 0.214431
vt 0.518002 0.216673
vt 0.518002 0.216673
vt 0.589365 0.214431
vt 0.476463 0.052947
vt 0.504155 0.046219
vn 0.3390 -0.9370 -0.0843
vn 0.2373 -0.9385 -0.2507
vn 0.0580 0.0000 -0.9983
vn 0.5965 0.0000 0.8026
vn 0.3390 0.9370 -0.0843
vn 0.9987 0.0000 -0.0507
vn -0.4055 0.0000 -0.9141
vn 0.9160 0.0000 0.4011
vn 0.2373 0.9385 -0.2507
vn 0.3890 0.0000 -0.9212
vn 0.1694 0.9003 -0.4010
vn 0.1694 -0.9003 -0.4010
vn -0.6600 0.0000 -0.7513
vn 0.2109 0.0000 0.9775
vn 0.2109 0.9775 0.0000
vn 0.2109 -0.9775 0.0000
vn 0.2109 0.0000 -0.9775
vn -0.3627 0.0000 0.9319
vn 0.0307 0.0000 -0.9995
vn 0.0000 0.0000 1.0000
vn 0.3627 0.0000 -0.9319
vn 0.0000 -1.0000 -0.0000
vn -0.8855 -0.3117 -0.3446
vn 0.9080 0.2250 0.3534
vn 0.2273 0.1328 -0.9647
vn 0.8342 0.4459 0.3247
vn -0.9099 -0.2162 -0.3541
vn -0.6715 0.6934 -0.2613
vn -0.8722 -0.3523 -0.3395
vn -0.4846 0.1328 0.8646
vn 0.2945 0.9488 0.1146
vn 0.1887 0.0000 -0.9820
vn -0.7796 0.5479 -0.3034
vn -0.6531 0.0000 0.7573
vn -0.7796 -0.5479 -0.3034
vn -0.9319 0.0000 -0.3627
vn -0.5778 0.7846 -0.2249
vn -0.5248 0.0000 0.8512
vn -0.5778 -0.7846 -0.2249
vn -0.8855 0.3117 -0.3446
vn 0.9080 -0.2250 0.3534
vn -0.4846 -0.1328 0.8646
vn 0.8342 -0.4459 0.3247
vn -0.9099 0.2162 -0.3541
vn -0.6715 -0.6934 -0.2614
vn -0.8722 0.3523 -0.3395
vn 0.2273 -0.1328 -0.9647
vn 0.2945 -0.9488 0.1146
vn 0.0233 0.9997 -0.0079
vn 0.0560 -0.9984 0.0000
vn -0.3099 0.0000 0.9508
vn 0.0000 0.0000 -1.0000
vn 0.0560 0.0000 -0.9984
vn 0.0560 0.0000 0.9984
vn 0.0560 0.9984 0.0000
vn -0.0000 1.0000 -0.0000
vn -0.4228 0.0000 -0.9062
vn -0.0093 1.0000 0.0029
vn -0.2403 -0.1511 0.9589
vn -0.4553 -0.0801 0.8867
vn 0.1054 0.1788 -0.9782
vn -0.9082 0.0851 -0.4099
vn 0.9612 0.2667 0.0709
vn -0.6677 -0.5154 -0.5371
vn 0.3144 0.0676 -0.9469
vn -0.8414 -0.0902 -0.5328
vn 0.8377 0.4972 0.2260
vn 0.0115 0.9985 0.0531
vn 0.2388 0.9653 0.1052
vn -0.3787 -0.1797 0.9079
vn 0.2228 0.1410 -0.9646
vn -0.8070 0.5679 -0.1621
vn -0.4149 -0.1526 0.8970
vn 0.1843 0.1669 -0.9686
vn -0.7930 -0.3199 -0.5184
vn -0.2946 -0.0923 0.9511
vn 0.9414 0.1154 0.3170
vn -0.0093 -1.0000 -0.0029
vn -0.2403 0.1511 -0.9589
vn -0.4553 0.0801 -0.8867
vn 0.1054 -0.1788 0.9782
vn -0.9082 -0.0851 0.4099
vn 0.9612 -0.2667 -0.0709
vn -0.6677 0.5154 0.5371
vn 0.3144 -0.0676 0.9469
vn -0.8414 0.0902 0.5328
vn 0.8377 -0.4972 -0.2260
vn 0.0115 -0.9985 -0.0531
vn 0.2388 -0.9653 -0.1052
vn -0.3787 0.1797 -0.9079
vn 0.2228 -0.1409 0.9646
vn -0.8070 -0.5679 0.1621
vn -0.4148 0.1526 -0.8970
vn 0.1843 -0.1669 0.9686
vn -0.7931 0.3199 0.5184
vn -0.2946 0.0923 -0.9511
vn 0.9414 -0.1154 -0.3170
usemtl Material.004
s off
f 16/1/1 15/2/1 19/3/1 20/4/1
f 20/4/2 19/3/2 23/5/2 24/6/2
f 15/2/3 14/7/3 18/8/3 19/3/3
f 13/9/4 16/1/4 20/4/4 17/10/4
f 14/11/5 13/12/5 17/13/5 18/14/5
f 21/15/6 24/6/6 28/16/6 25/17/6
f 19/3/7 18/8/7 22/18/7 23/5/7
f 17/10/8 20/4/8 24/6/8 21/15/8
f 18/14/9 17/13/9 21/19/9 22/20/9
f 26/21/10 25/22/10 28/16/10 27/23/10
f 22/20/11 21/19/11 25/22/11 26/21/11
f 24/6/12 23/5/12 27/23/12 28/16/12
f 23/5/13 22/18/13 26/24/13 27/23/13
usemtl Material.005
f 9/25/14 12/26/14 16/1/14 13/9/14
f 10/27/15 9/28/15 13/12/15 14/11/15
f 12/26/16 11/29/16 15/2/16 16/1/16
f 11/29/17 10/30/17 14/7/17 15/2/17
f 31/31/18 30/32/18 34/33/18 35/34/18
f 33/35/19 36/36/19 60/37/19 57/38/19
f 34/33/20 30/32/20 38/39/20 42/40/20
f 29/41/21 32/42/21 36/36/21 33/35/21
f 36/36/20 32/42/20 40/43/20 44/44/20
f 40/43/22 39/45/22 43/46/22 44/44/22
f 37/47/21 41/48/21 47/49/21 45/50/21
f 32/42/20 31/31/20 39/45/20 40/43/20
f 33/51/20 34/52/20 42/53/20 41/54/20
f 29/41/20 33/35/20 41/48/20 37/47/20
f 31/31/20 35/34/20 43/46/20 39/45/20
f 30/55/20 29/56/20 37/57/20 38/58/20
f 35/34/20 36/36/20 44/44/20 43/46/20
f 48/59/18 46/60/18 50/61/18 52/62/18
f 42/40/18 38/39/18 46/60/18 48/59/18
f 41/54/23 42/53/23 48/63/23 47/64/23
f 38/58/24 37/57/24 45/65/24 46/66/24
f 49/67/25 51/68/25 55/69/25 53/70/25
f 46/66/26 45/65/26 49/71/26 50/72/26
f 45/50/21 47/49/21 51/68/21 49/67/21
f 47/64/27 48/63/27 52/73/27 51/74/27
f 54/75/28 53/76/28 55/77/28 56/78/28
f 51/74/29 52/73/29 56/79/29 55/80/29
f 52/62/30 50/61/30 54/81/30 56/82/30
f 50/72/31 49/71/31 53/76/31 54/75/31
f 57/38/32 60/37/32 64/83/32 61/84/32
f 34/52/33 33/51/33 57/85/33 58/86/33
f 35/34/34 34/33/34 58/87/34 59/88/34
f 36/36/35 35/34/35 59/88/35 60/37/35
f 64/83/36 63/89/36 62/90/36 61/91/36
f 58/86/37 57/85/37 61/91/37 62/90/37
f 59/88/38 58/87/38 62/92/38 63/89/38
f 60/37/39 59/88/39 63/89/39 64/83/39
f 65/93/18 67/94/18 71/95/18 69/96/18
f 72/97/21 70/98/21 74/99/21 76/100/21
f 68/101/21 66/102/21 70/98/21 72/97/21
f 67/103/40 68/104/40 72/105/40 71/106/40
f 66/107/41 65/108/41 69/109/41 70/110/41
f 73/111/42 75/112/42 79/113/42 77/114/42
f 70/110/43 69/109/43 73/115/43 74/116/43
f 69/96/18 71/95/18 75/112/18 73/111/18
f 71/106/44 72/105/44 76/117/44 75/118/44
f 78/119/45 77/120/45 79/121/45 80/122/45
f 75/118/46 76/117/46 80/123/46 79/124/46
f 76/100/47 74/99/47 78/125/47 80/126/47
f 74/116/48 73/115/48 77/120/48 78/119/48
usemtl Material.006
f 1/127/49 2/128/49 84/129/49 83/130/49 82/131/49 4/132/49 3/133/49
f 8/134/50 7/135/50 11/29/50 12/26/50
f 7/135/22 8/134/22 6/136/22 5/137/22
f 6/136/51 2/138/51 30/32/51 31/31/51
f 3/139/52 7/135/52 5/137/52 1/140/52
f 8/134/20 4/141/20 2/138/20 6/136/20
f 7/135/53 3/139/53 10/30/53 11/29/53
f 4/141/54 8/134/54 12/26/54 9/25/54
f 3/133/55 4/132/55 9/28/55 10/27/55
f 5/137/22 6/136/22 31/31/22 32/42/22
f 2/128/56 1/127/56 29/56/56 30/55/56
f 1/140/57 5/137/57 32/42/57 29/41/57
f 4/132/58 82/131/58 81/142/58 84/129/58 2/128/58
f 84/129/59 81/142/59 85/143/59 88/144/59
f 88/144/60 85/143/60 89/145/60 92/146/60
f 82/131/61 83/130/61 87/147/61 86/148/61
f 83/130/62 84/129/62 88/144/62 87/147/62
f 81/142/63 82/131/63 86/148/63 85/143/63
f 91/149/64 92/146/64 96/150/64 95/151/64
f 86/148/65 87/147/65 91/149/65 90/152/65
f 87/147/66 88/144/66 92/146/66 91/149/66
f 85/143/67 86/148/67 90/152/67 89/145/67
f 93/153/68 94/154/68 98/155/68 97/156/68
f 89/145/69 90/152/69 94/154/69 93/153/69
f 92/146/70 89/145/70 93/153/70 96/150/70
f 90/152/71 91/149/71 95/151/71 94/154/71
f 97/156/72 98/155/72 99/157/72 100/158/72
f 96/150/73 93/153/73 97/156/73 100/158/73
f 94/154/74 95/151/74 99/157/74 98/155/74
f 95/151/75 96/150/75 100/158/75 99/157/75
f 104/159/76 101/160/76 105/161/76 108/162/76
f 108/162/60 105/161/60 109/163/60 112/164/60
f 102/165/61 103/166/61 107/167/61 106/168/61
f 103/166/62 104/159/62 108/162/62 107/167/62
f 101/160/77 102/165/77 106/168/77 105/161/77
f 111/169/64 112/164/64 116/170/64 115/171/64
f 106/168/65 107/167/65 111/169/65 110/172/65
f 107/167/66 108/162/66 112/164/66 111/169/66
f 105/161/67 106/168/67 110/172/67 109/163/67
f 113/173/68 114/174/68 118/175/68 117/176/68
f 109/163/69 110/172/69 114/174/69 113/173/69
f 112/164/70 109/163/70 113/173/70 116/170/70
f 110/172/71 111/169/71 115/171/71 114/174/71
f 117/176/72 118/175/72 119/177/72 120/178/72
f 116/170/73 113/173/73 117/176/73 120/178/73
f 114/174/74 115/171/74 119/177/74 118/175/74
f 115/171/75 116/170/75 120/178/75 119/177/75
f 122/179/78 124/180/78 123/181/78 126/182/78 121/183/78
f 126/182/79 123/181/79 127/184/79 130/185/79
f 130/185/80 127/184/80 131/186/80 134/187/80
f 124/180/81 125/188/81 129/189/81 128/190/81
f 125/188/82 126/182/82 130/185/82 129/189/82
f 123/181/83 124/180/83 128/190/83 127/184/83
f 133/191/84 134/187/84 138/192/84 137/193/84
f 128/190/85 129/189/85 133/191/85 132/194/85
f 129/189/86 130/185/86 134/187/86 133/191/86
f 127/184/87 128/190/87 132/194/87 131/186/87
f 135/195/88 136/196/88 140/197/88 139/198/88
f 131/186/89 132/194/89 136/196/89 135/195/89
f 134/187/90 131/186/90 135/195/90 138/192/90
f 132/194/91 133/191/91 137/193/91 136/196/91
f 139/198/92 140/197/92 141/199/92 142/200/92
f 138/192/93 135/195/93 139/198/93 142/200/93
f 136/196/94 137/193/94 141/199/94 140/197/94
f 137/193/95 138/192/95 142/200/95 141/199/95
f 146/201/96 143/202/96 147/203/96 150/204/96
f 150/204/80 147/203/80 151/205/80 154/206/80
f 144/207/81 145/208/81 149/209/81 148/210/81
f 145/208/82 146/201/82 150/204/82 149/209/82
f 143/202/97 144/207/97 148/210/97 147/203/97
f 153/211/84 154/206/84 158/212/84 157/213/84
f 148/210/85 149/209/85 153/211/85 152/214/85
f 149/209/86 150/204/86 154/206/86 153/211/86
f 147/203/87 148/210/87 152/214/87 151/205/87
f 155/215/88 156/216/88 160/217/88 159/218/88
f 151/205/89 152/214/89 156/216/89 155/215/89
f 154/206/90 151/205/90 155/215/90 158/212/90
f 152/214/91 153/211/91 157/213/91 156/216/91
f 159/218/92 160/217/92 161/219/92 162/220/92
f 158/212/93 155/215/93 159/218/93 162/220/93
f 156/216/94 157/213/94 161/219/94 160/217/94
f 157/213/95 158/212/95 162/220/95 161/219/95
