# Blender v2.80 (sub 41) OBJ File: ''
# www.blender.org
mtllib homme_test.mtl
o Cube_Cube.001
v 1.213514 -1.213514 5.977338
v 1.213514 -1.213514 3.550310
v -1.213514 -1.213514 5.977338
v -1.213514 -1.213514 3.550310
v 1.213514 1.213514 5.977338
v 1.213514 1.213514 3.550310
v -1.213514 1.213514 5.977338
v -1.213514 1.213514 3.550310
v -0.575850 -0.575850 9.194314
v 0.575850 -0.575850 9.194314
v -0.575850 0.575850 9.194314
v 0.575850 0.575850 9.194314
v -0.575850 -0.575850 10.177906
v 0.575850 -0.575850 10.177906
v -0.575850 0.575850 10.177906
v 0.575850 0.575850 10.177906
v -0.575850 -0.575850 9.194314
v 0.575850 -0.575850 9.194314
v -0.575850 0.575850 9.194314
v 0.575850 0.575850 9.194314
v -0.575850 -0.575850 10.177906
v 0.575850 -0.575850 10.177906
v -0.575850 0.575850 10.177906
v 0.575850 0.575850 10.177906
v 0.040845 1.213514 3.550310
v 0.055249 -1.213514 3.550310
v -1.042328 -1.213514 0.014776
v -2.311090 -1.213514 0.014776
v -2.311090 1.213514 0.014776
v -1.056731 1.213514 0.014776
v 1.161912 1.213514 0.254424
v 2.334580 1.213514 0.254424
v 2.334580 -1.213514 0.254424
v 1.176315 -1.213514 0.254424
v 0.885894 -0.885894 7.630158
v -0.940511 0.940511 7.354620
v 0.887630 0.887630 7.621398
v 0.991429 -0.991429 7.097741
v -0.902516 -0.902516 7.546302
v -0.883069 0.883069 7.644410
v -3.834241 0.584890 7.082451
v -3.834241 -0.359882 7.082451
v -3.713179 -0.238820 7.693204
v -3.727968 0.478618 7.618587
v -3.705608 0.456257 7.731395
v 4.072756 -0.592017 7.105979
v 4.072756 0.349754 7.105979
v 3.986579 -0.505841 7.540735
v 3.946302 0.223300 7.743933
v 3.945628 -0.464889 7.747332
vt 0.375000 0.000000
vt 0.375000 0.250000
vt 0.625000 0.250000
vt 0.625000 0.119309
vt 0.625000 0.000000
vt 0.375000 0.500000
vt 0.625000 0.500000
vt 0.375000 0.750000
vt 0.625000 0.750000
vt 0.625000 0.629207
vt 0.375000 1.000000
vt 0.625000 1.000000
vt 0.375000 0.500000
vt 0.375000 0.500000
vt 0.375000 0.250000
vt 0.375000 0.250000
vt 0.625000 0.250000
vt 0.625000 0.119309
vt 0.125000 0.500000
vt 0.125000 0.500000
vt 0.125000 0.750000
vt 0.125000 0.750000
vt 0.375000 0.000000
vt 0.375000 0.500000
vt 0.375000 0.750000
vt 0.375000 1.000000
vt 0.375000 1.000000
vt 0.375000 0.750000
vt 0.375000 0.750000
vt 0.375000 0.500000
vt 0.375000 0.750000
vt 0.375000 0.500000
vt 0.375000 0.250000
vt 0.375000 0.250000
vt 0.375000 0.500000
vt 0.375000 0.500000
vt 0.375000 0.750000
vt 0.375000 0.750000
vt 0.375000 1.000000
vt 0.375000 1.000000
vt 0.375000 1.000000
vt 0.375000 0.250000
vt 0.375000 0.000000
vt 0.375000 0.000000
vt 0.375000 0.000000
vt 0.625000 0.500000
vt 0.625000 0.629207
vt 0.875000 0.630691
vt 0.875000 0.500000
vt 0.625000 0.119309
vt 0.625000 0.000000
vt 0.875000 0.630691
vt 0.625000 0.629207
vt 0.625000 0.750000
vt 0.875000 0.750000
vt 0.875000 0.630691
vt 0.625000 1.000000
vt 0.375000 0.250000
vt 0.375000 0.500000
vt 0.375000 0.500000
vt 0.375000 0.000000
vt 0.375000 0.750000
vt 0.375000 1.000000
vt 0.375000 1.000000
vt 0.375000 0.000000
vt 0.375000 0.000000
vt 0.375000 0.000000
vn 0.0000 -1.0000 0.0000
vn -1.0000 0.0000 0.0000
vn 0.0000 1.0000 0.0000
vn 1.0000 0.0000 0.0000
vn 0.0391 -0.0552 0.9977
vn 0.0000 0.0000 1.0000
vn 0.0000 -0.9809 0.1944
vn 0.0000 0.9809 0.1944
vn -0.0390 0.0050 0.9992
vn 0.0000 0.0000 -1.0000
vn 0.9550 0.0057 -0.2965
vn -0.9550 0.0000 0.2965
vn -0.9467 -0.0056 -0.3220
vn 0.9467 0.0000 0.3220
vn -0.9809 0.0000 0.1944
vn 0.9809 0.0000 0.1944
vn -0.2122 -0.9497 0.2303
vn -0.3885 0.0000 -0.9214
vn -0.1393 0.9657 0.2190
vn 0.3672 0.0000 -0.9302
vn 0.1979 0.9533 0.2282
vn 0.1249 -0.9682 0.2167
usemtl Material.001
s off
f 1/1/1 3/2/1 4/3/1 26/4/1 2/5/1
f 3/2/2 7/6/2 8/7/2 4/3/2
f 7/6/3 5/8/3 6/9/3 25/10/3 8/7/3
f 5/8/4 1/11/4 2/12/4 6/9/4
f 40/13/5 45/14/5 43/15/5 39/16/5
f 4/3/1 28/17/1 27/18/1 26/4/1
f 13/19/6 21/20/6 22/21/6 14/22/6
f 1/1/7 38/23/7 39/16/7 3/2/7
f 7/6/8 36/24/8 37/25/8 5/8/8
f 35/26/9 50/27/9 49/28/9 37/25/9
f 13/19/6 14/22/6 16/29/6 15/30/6
f 16/29/6 24/31/6 23/32/6 15/30/6
f 9/33/6 17/34/6 19/35/6 11/36/6
f 12/37/6 20/38/6 18/39/6 10/40/6
f 20/38/4 24/31/4 22/41/4 18/39/4
f 17/34/2 21/42/2 23/32/2 19/35/2
f 19/35/3 23/32/3 24/31/3 20/38/3
f 18/43/1 22/44/1 21/42/1 17/34/1
f 11/36/6 19/35/6 20/38/6 12/37/6
f 14/22/6 22/21/6 24/31/6 16/29/6
f 10/45/6 18/43/6 17/34/6 9/33/6
f 15/30/6 23/32/6 21/20/6 13/19/6
f 29/46/10 30/47/10 27/48/10 28/49/10
f 26/4/1 34/50/1 33/51/1 2/5/1
f 26/52/11 27/48/11 30/47/11 25/10/11
f 25/10/3 30/47/3 29/46/3 8/7/3
f 8/7/12 29/46/12 28/17/12 4/3/12
f 31/53/10 32/54/10 33/55/10 34/56/10
f 6/9/3 32/54/3 31/53/3 25/10/3
f 25/10/13 31/53/13 34/56/13 26/52/13
f 2/12/14 33/57/14 32/54/14 6/9/14
f 42/58/15 43/15/15 45/14/15 44/59/15 41/60/15
f 36/24/8 40/13/8 11/36/8 12/37/8 37/25/8
f 37/25/16 12/37/16 10/40/16 35/26/16
f 38/23/7 35/61/7 10/45/7 9/33/7 39/16/7
f 39/16/15 9/33/15 11/36/15 40/13/15
f 39/16/17 43/15/17 42/58/17 3/2/17
f 3/2/18 42/58/18 41/60/18 7/6/18
f 36/24/19 44/59/19 45/14/19 40/13/19
f 7/6/19 41/60/19 44/59/19 36/24/19
f 47/62/16 49/28/16 50/27/16 48/63/16 46/64/16
f 5/8/20 47/62/20 46/64/20 1/11/20
f 37/25/21 49/28/21 47/62/21 5/8/21
f 38/23/22 48/65/22 50/66/22 35/61/22
f 1/1/22 46/67/22 48/65/22 38/23/22
