# Blender v2.80 (sub 41) OBJ File: ''
# www.blender.org
mtllib homme.mtl
o Cube_Cube.001
v -0.641625 0.641625 3.320324
v -0.497374 0.497374 5.744957
v 0.641625 0.641625 3.320324
v 0.497374 0.497374 5.744957
v -0.641625 -0.641625 3.320324
v -0.497374 -0.497374 5.744957
v 0.641625 -0.641625 3.320324
v 0.497374 -0.497374 5.744957
v 0.379141 0.504730 2.102117
v -0.388978 0.504730 2.102117
v 0.379141 -0.504730 2.102117
v -0.373315 -0.504730 2.102117
v -0.394552 -0.341482 1.918441
v -0.394552 0.001887 2.628923
v 0.394553 -0.341482 1.918441
v 0.394553 0.001887 2.628923
v -0.394553 -1.051964 2.261811
v -0.394553 -0.571594 2.972292
v 0.394553 -1.051964 2.261811
v 0.394553 -0.571594 2.972292
v 0.309879 -1.049392 0.648264
v -0.309879 -1.049392 0.648264
v 0.309879 -1.607400 0.917944
v -0.309879 -1.607400 0.917944
v 0.243042 -1.374149 0.006805
v -0.243042 -1.374149 0.006805
v 0.243042 -1.860232 0.007272
v -0.243042 -1.860232 0.007272
v 0.394553 0.332234 1.918441
v 0.394553 -0.011136 2.628923
v -0.394553 0.332234 1.918441
v -0.394553 -0.011136 2.628923
v 0.394553 1.042716 2.261811
v 0.394553 0.588836 2.972292
v -0.394553 1.042716 2.261811
v -0.394553 0.588836 2.972292
v -0.309879 1.040143 0.648264
v 0.309879 1.040143 0.648264
v -0.309879 1.598151 0.917944
v 0.309879 1.598151 0.917944
v -0.243042 0.912055 0.006805
v 0.243042 0.912055 0.006805
v -0.243042 1.398138 0.007272
v 0.243042 1.398138 0.007272
v -0.200615 -0.598756 4.827628
v -0.365519 -0.165366 4.846384
v 0.200615 -0.598756 4.827628
v 0.365519 -0.165366 4.846384
v -0.200615 -0.767183 5.191794
v -0.365519 -0.472240 5.509893
v 0.200615 -0.767183 5.191794
v 0.365519 -0.472240 5.509893
v 0.200615 -0.598756 4.827628
v -0.200615 -0.598756 4.827628
v 0.200615 -0.767183 5.191794
v -0.200615 -0.767183 5.191794
v 0.200615 -0.820906 4.754830
v -0.200615 -0.820906 4.754830
v 0.200615 -1.149548 4.985004
v -0.200615 -1.149548 4.985004
v 0.200615 -1.192378 4.243975
v -0.200615 -1.192378 4.243975
v 0.200615 -1.578512 4.352997
v -0.200615 -1.578512 4.352997
v 0.111669 -1.544559 3.323963
v -0.111669 -1.544559 3.323963
v 0.111669 -1.759494 3.384648
v -0.111669 -1.759494 3.384648
v 0.200615 0.602876 4.814950
v 0.460061 0.132486 4.731101
v -0.200615 0.602876 4.814950
v -0.460061 0.132486 4.731101
v 0.200615 0.758235 5.184881
v 0.460061 0.488762 5.579446
v -0.200615 0.758235 5.184881
v -0.460061 0.488762 5.579446
v -0.200615 0.602876 4.814950
v 0.200615 0.602876 4.814950
v -0.200615 0.758235 5.184881
v 0.200615 0.758235 5.184881
v -0.200615 0.827477 4.750105
v 0.200615 0.827477 4.750106
v -0.200615 1.147718 4.991831
v 0.200615 1.147718 4.991831
v -0.200615 0.999630 4.294940
v 0.200615 0.999630 4.294940
v -0.200615 1.400519 4.311473
v 0.200615 1.400519 4.311473
v -0.111669 1.000612 3.389902
v 0.111669 1.000612 3.389903
v -0.111669 1.190143 3.271758
v 0.111669 1.190143 3.271758
v -0.209229 0.209229 5.848909
v 0.209229 0.209229 5.848909
v 0.209229 -0.209229 5.848909
v -0.209229 -0.209229 5.848909
v -0.209229 0.209229 5.983153
v 0.209229 0.209229 5.983153
v 0.209229 -0.209229 5.983153
v -0.209229 -0.209229 5.983153
v -0.302850 0.302850 6.027851
v 0.302850 0.302850 6.027851
v 0.302850 -0.302850 6.027851
v -0.302850 -0.302850 6.027851
v -0.413176 0.413176 6.107393
v 0.413176 0.413176 6.107393
v 0.413176 -0.413176 6.107393
v -0.413176 -0.413176 6.107393
v -0.413176 0.413176 6.600311
v 0.413176 0.413176 6.600311
v 0.417867 -0.392662 6.636786
v -0.413176 -0.413176 6.600311
v -0.286869 0.286869 6.660622
v 0.286869 0.286869 6.660622
v 0.286869 -0.286869 6.660622
v -0.286869 -0.286869 6.660622
v -0.160786 0.160786 6.719506
v 0.160786 0.160786 6.719506
v 0.160786 -0.160786 6.719506
v -0.160786 -0.160786 6.719506
vt 0.375000 0.000000
vt 0.625000 0.000000
vt 0.625000 0.250000
vt 0.375000 0.250000
vt 0.625000 0.500000
vt 0.375000 0.500000
vt 0.625000 0.750000
vt 0.375000 0.750000
vt 0.625000 1.000000
vt 0.375000 1.000000
vt 0.375000 0.750000
vt 0.375000 0.500000
vt 0.875000 0.500000
vt 0.875000 0.750000
vt 0.375000 0.750000
vt 0.375000 0.500000
vt 0.375000 1.000000
vt 0.375000 0.250000
vt 0.375000 0.000000
vt 0.125000 0.500000
vt 0.125000 0.750000
vt 0.375000 0.250000
vt 0.375000 0.000000
vt 0.375000 1.000000
vt 0.375000 0.250000
vt 0.625000 0.250000
vt 0.625000 0.500000
vt 0.375000 0.500000
vt 0.625000 0.750000
vt 0.375000 0.750000
vt 0.625000 1.000000
vt 0.375000 1.000000
vt 0.375000 0.750000
vt 0.375000 0.500000
vt 0.875000 0.500000
vt 0.875000 0.750000
vt 0.375000 0.750000
vt 0.375000 0.500000
vt 0.375000 1.000000
vt 0.375000 0.250000
vt 0.375000 0.000000
vt 0.375000 0.000000
vt 0.125000 0.500000
vt 0.125000 0.750000
vt 0.375000 0.250000
vt 0.375000 0.000000
vt 0.375000 1.000000
vt 0.375000 0.000000
vt 0.625000 0.000000
vt 0.625000 0.250000
vt 0.375000 0.250000
vt 0.625000 0.500000
vt 0.375000 0.500000
vt 0.625000 0.750000
vt 0.375000 0.750000
vt 0.625000 1.000000
vt 0.375000 1.000000
vt 0.375000 0.500000
vt 0.375000 0.250000
vt 0.875000 0.500000
vt 0.875000 0.750000
vt 0.375000 0.500000
vt 0.375000 0.250000
vt 0.375000 0.000000
vt 0.375000 0.750000
vt 0.375000 1.000000
vt 0.375000 0.750000
vt 0.375000 0.750000
vt 0.375000 0.500000
vt 0.375000 0.000000
vt 0.375000 1.000000
vt 0.375000 1.000000
vt 0.375000 1.000000
vt 0.375000 0.750000
vt 0.375000 0.250000
vt 0.375000 0.000000
vt 0.125000 0.500000
vt 0.375000 0.500000
vt 0.125000 0.750000
vt 0.375000 0.250000
vt 0.375000 0.000000
vt 0.375000 0.000000
vt 0.625000 0.000000
vt 0.625000 0.250000
vt 0.375000 0.250000
vt 0.625000 0.500000
vt 0.375000 0.500000
vt 0.625000 0.750000
vt 0.375000 0.750000
vt 0.625000 1.000000
vt 0.375000 1.000000
vt 0.375000 0.500000
vt 0.375000 0.250000
vt 0.875000 0.500000
vt 0.875000 0.750000
vt 0.375000 0.500000
vt 0.375000 0.250000
vt 0.375000 0.000000
vt 0.375000 0.750000
vt 0.375000 1.000000
vt 0.375000 0.750000
vt 0.375000 0.750000
vt 0.375000 0.500000
vt 0.375000 0.000000
vt 0.375000 1.000000
vt 0.375000 1.000000
vt 0.375000 1.000000
vt 0.375000 0.750000
vt 0.375000 0.250000
vt 0.375000 0.000000
vt 0.125000 0.500000
vt 0.375000 0.500000
vt 0.125000 0.750000
vt 0.375000 0.250000
vt 0.375000 0.000000
vt 0.625000 0.250000
vt 0.625000 0.000000
vt 0.625000 0.000000
vt 0.625000 0.250000
vt 0.625000 1.000000
vt 0.625000 0.750000
vt 0.625000 0.750000
vt 0.625000 1.000000
vt 0.625000 1.000000
vt 0.625000 0.750000
vt 0.625000 0.500000
vt 0.625000 0.500000
vt 0.625000 0.500000
vt 0.625000 0.500000
vt 0.625000 0.750000
vt 0.625000 0.250000
vt 0.625000 0.000000
vt 0.625000 1.000000
vt 0.625000 0.750000
vt 0.625000 1.000000
vt 0.625000 0.000000
vt 0.625000 0.250000
vt 0.625000 0.500000
vt 0.625000 0.250000
vt 0.625000 0.250000
vt 0.625000 0.500000
vt 0.625000 0.000000
vt 0.625000 0.750000
vt 0.625000 0.500000
vt 0.625000 0.750000
vt 0.625000 0.000000
vt 0.625000 1.000000
vt 0.875000 0.500000
vt 0.875000 0.750000
vt 0.625000 0.000000
vt 0.625000 0.250000
vt 0.625000 1.000000
vt 0.375000 0.000000
vt 0.625000 0.000000
vt 0.625000 0.250000
vt 0.375000 0.250000
vt 0.625000 0.500000
vt 0.375000 0.500000
vt 0.625000 0.750000
vt 0.375000 0.750000
vt 0.625000 1.000000
vt 0.375000 1.000000
vt 0.375000 0.750000
vt 0.375000 0.500000
vt 0.125000 0.500000
vt 0.125000 0.750000
vt 0.375000 1.000000
vt 0.375000 0.250000
vt 0.375000 0.000000
vn 0.0000 0.9004 -0.4351
vn 1.0000 -0.0000 0.0000
vn 0.0000 -0.8284 0.5601
vn -1.0000 0.0000 -0.0000
vn 0.0000 -0.9242 0.3820
vn 0.0000 0.5137 0.8580
vn 0.0000 -0.9636 0.2675
vn -0.9983 -0.0253 -0.0524
vn 0.9983 -0.0253 -0.0524
vn 0.0000 0.8735 -0.4868
vn 0.0000 -0.0010 -1.0000
vn 0.0000 0.8922 -0.4517
vn -0.9967 -0.0203 -0.0783
vn 0.9967 -0.0203 -0.0783
vn 0.0000 0.8427 0.5384
vn 0.0000 0.9242 0.3820
vn 0.0000 -0.4967 0.8679
vn 0.0000 0.9767 -0.2145
vn 0.9983 0.0253 -0.0524
vn -0.9983 0.0253 -0.0524
vn 0.0000 -0.8735 -0.4868
vn 0.0000 0.0010 -1.0000
vn 0.0000 -0.9806 0.1958
vn 0.9956 0.0235 -0.0907
vn -0.9956 0.0235 -0.0907
vn 0.0000 0.0432 -0.9991
vn 0.9249 -0.3450 -0.1596
vn -0.0000 -0.7333 0.6799
vn -0.9249 -0.3450 -0.1596
vn 0.0000 0.0000 1.0000
vn 0.0000 0.9076 0.4198
vn 0.0000 -0.8274 0.5616
vn 0.0000 -0.4757 0.8796
vn -0.0000 0.3114 -0.9503
vn -0.9959 -0.0245 -0.0869
vn 0.0000 0.8088 -0.5881
vn 0.0000 -0.2717 -0.9624
vn 0.9959 -0.0245 -0.0869
vn 0.0000 -0.9830 0.1837
vn -0.0000 0.9339 -0.3575
vn -0.0000 0.1755 -0.9845
vn -0.8397 0.5006 -0.2103
vn 0.0000 0.8258 0.5640
vn 0.8397 0.5006 -0.2103
vn 0.0000 -0.9220 0.3872
vn 0.0000 0.9374 0.3483
vn 0.0000 0.4441 0.8960
vn 0.0000 -0.2774 -0.9608
vn 0.9959 -0.0154 -0.0894
vn -0.0000 -0.9353 -0.3538
vn 0.0000 -0.5290 -0.8486
vn -0.9959 -0.0154 -0.0894
vn 0.0000 0.9801 -0.1983
vn 0.0000 -1.0000 -0.0011
vn 0.0000 1.0000 0.0000
vn -0.4309 0.0000 -0.9024
vn 0.0000 -1.0000 0.0000
vn 0.0000 -0.5848 -0.8112
vn 0.4309 0.0000 -0.9024
vn 0.0000 -0.4309 -0.9024
vn 0.0000 0.4309 -0.9024
vn 0.0000 0.5848 -0.8112
vn -0.5848 0.0000 -0.8112
vn 0.5848 0.0000 -0.8112
vn 0.3088 0.0262 0.9508
vn 1.0000 0.0028 -0.0046
vn 0.0119 -0.9997 0.0200
vn 0.0000 -0.4232 0.9061
vn -0.0194 -0.3411 0.9398
vn 0.0000 0.4309 0.9024
vn -0.4309 0.0000 0.9024
vn 0.0000 0.4232 0.9061
vn -0.4232 0.0000 0.9061
vn 0.4232 0.0000 0.9061
vn 0.0000 0.9982 0.0594
vn 0.9982 0.0000 0.0594
vn 0.0000 -0.9982 0.0594
vn -0.9982 0.0000 0.0594
vn 0.0000 -0.9937 -0.1117
vn 0.0000 -0.3394 0.9407
vn 0.0000 0.0000 -1.0000
vn -0.9779 -0.0067 -0.2091
vn 0.9776 0.0000 -0.2106
vn 0.0000 0.9937 -0.1117
vn 0.0000 0.3394 0.9407
vn -0.3394 0.0000 0.9407
vn 0.3394 0.0000 0.9407
usemtl Material.002
s off
f 13/1/1 14/2/1 16/3/1 15/4/1
f 15/4/2 16/3/2 20/5/2 19/6/2
f 19/6/3 20/5/3 18/7/3 17/8/3
f 17/8/4 18/7/4 14/9/4 13/10/4
f 19/6/5 17/8/5 24/11/5 23/12/5
f 20/5/6 16/13/6 14/14/6 18/7/6
f 23/12/7 24/11/7 28/15/7 27/16/7
f 17/8/8 13/10/8 22/17/8 24/11/8
f 15/4/9 19/6/9 23/12/9 21/18/9
f 13/1/10 15/4/10 21/18/10 22/19/10
f 25/20/11 27/16/11 28/15/11 26/21/11
f 22/19/12 21/18/12 25/22/12 26/23/12
f 24/11/13 22/17/13 26/24/13 28/15/13
f 21/18/14 23/12/14 27/16/14 25/22/14
f 31/25/4 32/26/4 36/27/4 35/28/4
f 35/28/15 36/27/15 34/29/15 33/30/15
f 33/30/2 34/29/2 30/31/2 29/32/2
f 35/28/16 33/30/16 40/33/16 39/34/16
f 36/27/17 32/35/17 30/36/17 34/29/17
f 39/34/18 40/33/18 44/37/18 43/38/18
f 33/30/19 29/32/19 38/39/19 40/33/19
f 31/25/20 35/28/20 39/34/20 37/40/20
f 29/41/21 31/25/21 37/40/21 38/42/21
f 41/43/22 43/38/22 44/37/22 42/44/22
f 38/42/23 37/40/23 41/45/23 42/46/23
f 40/33/24 38/39/24 42/47/24 44/37/24
f 37/40/25 39/34/25 43/38/25 41/45/25
f 45/48/26 46/49/26 48/50/26 47/51/26
f 47/51/27 48/50/27 52/52/27 51/53/27
f 51/53/28 52/52/28 50/54/28 49/55/28
f 49/55/29 50/54/29 46/56/29 45/57/29
f 47/51/30 51/53/30 55/58/30 53/59/30
f 52/52/31 48/60/31 46/61/31 50/54/31
f 53/59/2 55/58/2 59/62/2 57/63/2
f 45/48/30 47/51/30 53/59/30 54/64/30
f 51/53/30 49/55/30 56/65/30 55/58/30
f 49/55/30 45/57/30 54/66/30 56/65/30
f 59/62/32 60/67/32 64/68/32 63/69/32
f 55/58/33 56/65/33 60/67/33 59/62/33
f 54/64/34 53/59/34 57/63/34 58/70/34
f 56/65/4 54/66/4 58/71/4 60/67/4
f 64/68/35 62/72/35 66/73/35 68/74/35
f 58/70/36 57/63/36 61/75/36 62/76/36
f 60/67/4 58/71/4 62/72/4 64/68/4
f 57/63/2 59/62/2 63/69/2 61/75/2
f 65/77/37 67/78/37 68/74/37 66/79/37
f 61/75/38 63/69/38 67/78/38 65/80/38
f 63/69/39 64/68/39 68/74/39 67/78/39
f 62/76/40 61/75/40 65/80/40 66/81/40
f 69/82/41 70/83/41 72/84/41 71/85/41
f 71/85/42 72/84/42 76/86/42 75/87/42
f 75/87/43 76/86/43 74/88/43 73/89/43
f 73/89/44 74/88/44 70/90/44 69/91/44
f 71/85/30 75/87/30 79/92/30 77/93/30
f 76/86/45 72/94/45 70/95/45 74/88/45
f 77/93/4 79/92/4 83/96/4 81/97/4
f 69/82/30 71/85/30 77/93/30 78/98/30
f 75/87/30 73/89/30 80/99/30 79/92/30
f 73/89/30 69/91/30 78/100/30 80/99/30
f 83/96/46 84/101/46 88/102/46 87/103/46
f 79/92/47 80/99/47 84/101/47 83/96/47
f 78/98/48 77/93/48 81/97/48 82/104/48
f 80/99/2 78/100/2 82/105/2 84/101/2
f 88/102/49 86/106/49 90/107/49 92/108/49
f 82/104/50 81/97/50 85/109/50 86/110/50
f 84/101/2 82/105/2 86/106/2 88/102/2
f 81/97/4 83/96/4 87/103/4 85/109/4
f 89/111/51 91/112/51 92/108/51 90/113/51
f 85/109/52 87/103/52 91/112/52 89/114/52
f 87/103/53 88/102/53 92/108/53 91/112/53
f 86/110/54 85/109/54 89/114/54 90/115/54
f 94/116/55 93/117/55 97/118/55 98/119/55
f 97/120/56 100/121/56 104/122/56 101/123/56
f 93/124/4 96/125/4 100/121/4 97/120/4
f 95/126/2 94/116/2 98/119/2 99/127/2
f 96/125/57 95/126/57 99/127/57 100/121/57
f 104/122/58 103/128/58 107/129/58 108/130/58
f 99/127/59 98/119/59 102/131/59 103/128/59
f 100/121/60 99/127/60 103/128/60 104/122/60
f 98/119/61 97/118/61 101/132/61 102/131/61
f 105/133/4 108/130/4 112/134/4 109/135/4
f 102/131/62 101/132/62 105/136/62 106/137/62
f 101/123/63 104/122/63 108/130/63 105/133/63
f 103/128/64 102/131/64 106/137/64 107/129/64
f 111/138/65 110/139/65 114/140/65 115/141/65
f 107/129/66 106/137/66 110/139/66 111/138/66
f 108/130/67 107/129/67 111/138/67 112/134/67
f 106/137/55 105/136/55 109/142/55 110/139/55
f 116/143/68 115/141/68 119/144/68 120/145/68
f 112/134/69 111/138/69 115/141/69 116/143/69
f 110/139/70 109/142/70 113/146/70 114/140/70
f 109/135/71 112/134/71 116/143/71 113/147/71
f 119/144/30 118/148/30 117/149/30 120/145/30
f 114/140/72 113/146/72 117/150/72 118/151/72
f 113/147/73 116/143/73 120/145/73 117/152/73
f 115/141/74 114/140/74 118/151/74 119/144/74
usemtl Material.003
f 1/153/75 2/154/75 4/155/75 3/156/75
f 3/156/76 4/155/76 8/157/76 7/158/76
f 7/158/77 8/157/77 6/159/77 5/160/77
f 5/160/78 6/159/78 2/161/78 1/162/78
f 7/158/79 5/160/79 12/163/79 11/164/79
f 6/159/80 8/157/80 95/126/80 96/125/80
f 9/165/81 11/164/81 12/163/81 10/166/81
f 5/160/82 1/162/82 10/167/82 12/163/82
f 3/156/83 7/158/83 11/164/83 9/168/83
f 1/153/84 3/156/84 9/168/84 10/169/84
f 4/155/85 2/154/85 93/117/85 94/116/85
f 2/161/86 6/159/86 96/125/86 93/124/86
f 8/157/87 4/155/87 94/116/87 95/126/87
