# Blender v2.79 (sub 0) OBJ File: ''
# www.blender.org
mtllib immeuble.mtl
o object_1.005
v -0.110223 52.654362 63.431801
v -0.110223 62.413864 63.431801
v -0.110223 70.987061 52.461803
v -0.110223 44.081161 52.461803
v 24.403679 70.987061 52.461803
v 24.403679 62.413864 63.431801
v 24.403679 52.654362 63.431801
v 24.403679 44.081161 52.461803
v 24.403679 62.413864 63.431801
v -0.110223 62.413864 63.431801
v -0.110223 52.654362 63.431801
v 24.403679 52.654362 63.431801
v 24.403679 52.654362 63.431801
v -0.110223 52.654362 63.431801
v -0.110223 44.081161 52.461803
v 24.403679 44.081161 52.461803
v -0.110223 62.413864 63.431801
v 24.403679 62.413864 63.431801
v 24.403679 70.987061 52.461803
v -0.110223 70.987061 52.461803
v -0.110223 70.987061 0.093475
v -0.110223 44.081161 0.093475
v -0.110223 44.081161 52.461803
v -0.110223 70.987061 52.461803
v 24.403679 70.987061 52.461803
v 24.403679 44.081161 52.461803
v 24.403679 44.081161 0.093475
v 24.403679 70.987061 0.093475
v 24.403679 70.987061 0.093475
v 24.403679 44.081161 0.093475
v -0.110223 44.081161 0.093475
v -0.110223 70.987061 0.093475
v 24.403679 44.081161 0.093475
v 24.403679 44.081161 52.461803
v -0.110223 44.081161 52.461803
v -0.110223 44.081161 0.093475
v 24.403679 70.987061 0.093475
v -0.110223 70.987061 0.093475
v -0.110223 70.987061 52.461803
v 24.403679 70.987061 52.461803
vt 0.332973 0.177605
vt 0.332973 0.084423
vt 0.228234 0.002569
vt 0.228234 0.259459
vt 0.212747 0.002569
vt 0.108008 0.084423
vt 0.108008 0.177605
vt 0.212747 0.259459
vt 0.000932 0.236393
vt 0.000932 0.002341
vt 0.094113 0.002341
vt 0.094113 0.236393
vt 0.634259 0.727337
vt 0.634259 0.493284
vt 0.501329 0.493284
vt 0.501329 0.727337
vt 0.481673 0.002341
vt 0.481673 0.236393
vt 0.348743 0.236393
vt 0.348743 0.002341
vt 0.000000 0.752695
vt 0.000000 0.495804
vt 0.498535 0.495804
vt 0.498535 0.752695
vt 0.500000 0.489479
vt 0.500000 0.234053
vt 0.998535 0.234053
vt 0.998535 0.489479
vt 0.683406 0.746369
vt 0.683406 0.490943
vt 0.917458 0.490943
vt 0.917458 0.746369
vt 0.500000 0.232588
vt 0.998535 0.232588
vt 0.998535 0.000000
vt 0.500000 0.000000
vt 0.500000 0.980422
vt 0.500000 0.747834
vt 0.998535 0.747834
vt 0.998535 0.980422
vn -1.0000 0.0000 0.0000
vn 1.0000 0.0000 0.0000
vn 0.0000 0.0000 1.0000
vn 0.0000 -0.7879 0.6158
vn 0.0000 0.7879 0.6158
vn 0.0000 0.0000 -1.0000
vn 0.0000 -1.0000 0.0000
vn 0.0000 1.0000 0.0000
usemtl Material.013
s 1
f 1/1/1 2/2/1 3/3/1
f 3/3/1 4/4/1 1/1/1
f 5/5/2 6/6/2 7/7/2 8/8/2
f 9/9/3 10/10/3 11/11/3 12/12/3
f 13/13/4 14/14/4 15/15/4
f 15/15/4 16/16/4 13/13/4
f 17/17/5 18/18/5 19/19/5 20/20/5
f 21/21/1 22/22/1 23/23/1 24/24/1
f 25/25/2 26/26/2 27/27/2 28/28/2
f 29/29/6 30/30/6 31/31/6 32/32/6
f 33/33/7 34/34/7 35/35/7 36/36/7
f 37/37/8 38/38/8 39/39/8 40/40/8
