# Blender v2.80 (sub 41) OBJ File: 'modeles.blend'
# www.blender.org
mtllib incinerateur.mtl
o object_6.002
v 10.057220 -2.130386 0.208498
v 13.237434 1.353134 0.208498
v 10.391830 -3.441544 0.208498
v 11.926842 1.019089 0.208498
v 10.271210 -0.794846 0.208498
v 15.638252 0.485001 0.208498
v 11.140488 -4.441895 0.208498
v 12.205200 -5.096603 0.208498
v 13.541306 -5.310577 0.208498
v 16.721519 -1.826508 0.208498
v 14.851898 -4.975983 0.208498
v 10.925919 0.269852 0.208498
v 14.573547 1.139725 0.208498
v 16.386917 -0.515900 0.208498
v 16.507530 -3.162613 0.208498
v 15.852814 -4.227325 0.208498
v 16.529572 -3.102310 41.791275
v 16.507530 -3.162613 0.208498
v 16.687302 -2.475998 41.480907
v 16.721519 -1.835205 41.163059
v 16.721519 -1.826508 0.208498
v 16.632210 -1.198456 40.847069
v 16.250053 -3.693222 42.084473
v 13.541306 -5.310577 0.208498
v 14.830437 -4.986420 42.726086
v 13.552322 -5.310013 42.886433
v 14.851898 -4.975983 0.208498
v 15.852814 -4.227325 42.349377
v 12.241158 -5.109955 42.787327
v 15.852814 -4.227325 0.208498
v 11.140488 -4.441895 42.455906
v 12.205200 -5.096603 0.208498
v 16.386917 -0.515900 0.208498
v 15.638252 0.485001 40.012119
v 16.419960 -0.585510 40.542965
v 15.638252 0.485001 0.208498
v 11.140488 -4.441895 0.208498
v 10.146530 -2.758408 41.620956
v 10.391830 -3.441544 0.208498
v 10.358772 -3.371964 41.925060
v 10.271210 -0.794846 0.208498
v 10.091438 -1.480865 40.987114
v 10.249168 -0.855164 40.676750
v 10.057220 -2.121674 41.304966
v 10.057220 -2.130386 0.208498
v 10.925919 0.269852 0.208498
v 10.528687 -0.264236 40.383549
v 10.925919 0.269852 40.118649
v 14.573547 1.139725 0.208498
v 14.537582 1.153061 39.680698
v 15.638252 0.485001 40.012119
v 11.926842 1.019089 0.208498
v 11.948296 1.029541 39.741940
v 13.237434 1.353134 0.208498
v 13.226418 1.353134 39.581539
v 15.638252 0.485001 0.208498
vt 0.022676 0.022890
vt 0.132164 0.022890
vt 0.005436 0.049385
vt 0.105918 0.005487
vt 0.048922 0.005487
vt 0.154840 0.078152
vt 0.000000 0.078152
vt 0.005436 0.106920
vt 0.022676 0.133414
vt 0.132164 0.133414
vt 0.048922 0.150817
vt 0.077420 0.000000
vt 0.149404 0.049385
vt 0.149404 0.106920
vt 0.105918 0.150817
vt 0.077420 0.156305
vt 0.246031 0.025623
vt 0.247508 0.998535
vt 0.231488 0.032886
vt 0.217300 0.040323
vt 0.217107 0.998535
vt 0.203081 0.047715
vt 0.261347 0.018764
vt 0.338711 0.998535
vt 0.308864 0.003753
vt 0.338470 0.000000
vt 0.308310 0.998535
vt 0.277909 0.012566
vt 0.368230 0.002319
vt 0.277909 0.998535
vt 0.399513 0.010073
vt 0.369112 0.998535
vt 0.186706 0.998535
vt 0.156305 0.067251
vt 0.188467 0.054831
vt 0.156305 0.998535
vt 0.399513 0.998535
vt 0.446289 0.029609
vt 0.429914 0.998535
vt 0.431675 0.022494
vt 0.490716 0.998535
vt 0.474696 0.044438
vt 0.489239 0.051701
vt 0.460508 0.037002
vt 0.460315 0.998535
vt 0.521117 0.998535
vt 0.504555 0.058560
vt 0.521117 0.064759
vt 0.612320 0.998535
vt 0.611439 0.075006
vt 0.642721 0.067251
vt 0.551518 0.998535
vt 0.552073 0.073572
vt 0.581919 0.998535
vt 0.581678 0.077324
vt 0.642721 0.998535
vn -0.0000 0.0000 -1.0000
vn 0.9416 -0.3369 0.0000
vn 0.9349 -0.3550 0.0000
vn 0.9888 -0.1492 0.0000
vn 0.9991 0.0429 -0.0000
vn 0.9990 0.0455 0.0000
vn 0.9723 0.2339 -0.0000
vn 0.8578 -0.5140 0.0000
vn 0.0456 -0.9990 -0.0001
vn 0.4320 -0.9019 -0.0000
vn 0.0488 -0.9988 -0.0000
vn 0.4385 -0.8987 -0.0001
vn 0.7386 -0.6742 -0.0000
vn -0.3442 -0.9389 0.0000
vn 0.7385 -0.6742 -0.0001
vn -0.6742 -0.7386 -0.0000
vn -0.3550 -0.9349 0.0000
vn 0.8987 0.4386 -0.0000
vn 0.6742 0.7386 0.0000
vn 0.9086 0.4177 0.0000
vn -0.9723 -0.2339 0.0000
vn -0.8987 -0.4385 -0.0000
vn -0.9086 -0.4177 -0.0000
vn -0.9349 0.3550 0.0000
vn -0.9888 0.1492 0.0000
vn -0.9416 0.3369 -0.0000
vn -0.9991 -0.0429 -0.0000
vn -0.9990 -0.0455 -0.0000
vn -0.7385 0.6742 -0.0001
vn -0.8578 0.5141 -0.0000
vn -0.7386 0.6742 -0.0000
vn 0.3550 0.9349 -0.0000
vn 0.3442 0.9389 -0.0000
vn -0.4386 0.8987 -0.0001
vn -0.4320 0.9019 -0.0000
vn -0.0456 0.9990 -0.0002
vn -0.0488 0.9988 -0.0000
usemtl Material.012
s 1
f 1/1/1 2/2/1 3/3/1
f 4/4/1 1/1/1 5/5/1
f 6/6/1 7/7/1 3/3/1
f 6/6/1 8/8/1 7/7/1
f 9/9/1 10/10/1 11/11/1
f 10/10/1 9/9/1 8/8/1
f 12/12/1 4/4/1 5/5/1
f 3/3/1 2/2/1 13/13/1
f 13/13/1 6/6/1 3/3/1
f 6/6/1 14/14/1 8/8/1
f 15/15/1 16/16/1 11/11/1
f 10/10/1 15/15/1 11/11/1
f 8/8/1 14/14/1 10/10/1
f 1/1/1 4/4/1 2/2/1
f 17/17/2 18/18/3 19/19/4
f 20/20/5 19/19/4 21/21/6
f 22/22/7 20/20/5 21/21/6
f 18/18/3 17/17/2 23/23/8
f 24/24/9 25/25/10 26/26/11
f 25/25/10 27/27/12 28/28/13
f 24/24/9 26/26/11 29/29/14
f 30/30/15 23/23/8 28/28/13
f 31/31/16 32/32/17 29/29/14
f 33/33/18 34/34/19 35/35/20
f 34/34/19 33/33/18 36/36/19
f 22/22/7 33/33/18 35/35/20
f 22/22/7 21/21/6 33/33/18
f 18/18/3 21/21/6 19/19/4
f 27/27/12 30/30/15 28/28/13
f 24/24/9 27/27/12 25/25/10
f 18/18/3 23/23/8 30/30/15
f 24/24/9 29/29/14 32/32/17
f 32/32/17 31/31/16 37/37/16
f 38/38/21 39/39/22 40/40/23
f 41/41/24 42/42/25 43/43/26
f 44/44/27 45/45/28 38/38/21
f 42/42/25 45/45/28 44/44/27
f 46/46/29 47/47/30 48/48/31
f 49/49/32 50/50/33 51/51/19
f 52/52/34 48/48/31 53/53/35
f 41/41/24 43/43/26 47/47/30
f 37/37/16 31/31/16 39/39/22
f 41/41/24 45/45/28 42/42/25
f 46/46/29 41/41/24 47/47/30
f 39/39/22 38/38/21 45/45/28
f 52/52/34 53/53/35 54/54/36
f 48/48/31 52/52/34 46/46/29
f 50/50/33 54/54/36 55/55/37
f 49/49/32 54/54/36 50/50/33
f 49/49/32 51/51/19 56/56/19
f 55/55/37 54/54/36 53/53/35
f 40/40/23 39/39/22 31/31/16
o object_4.005
v 10.057220 -1.972641 3.209200
v 10.057220 -2.121674 3.060251
v 8.251968 -2.121674 3.060251
v 8.251968 -1.972641 3.209200
v 10.057220 -2.270706 3.209200
v 8.251968 -2.270706 3.209200
v 10.057220 -2.121674 3.358149
v 8.251968 -2.121674 3.358149
v 10.057220 -1.972641 3.209200
v 8.251968 -1.972641 3.209200
v 10.057220 -1.972641 3.209200
v 10.057220 -2.121674 3.358149
v 10.057220 -2.270706 3.209200
v 10.057220 -2.121674 3.060251
v 8.251968 -1.972641 3.209200
v 8.251968 -2.270706 3.209200
v 8.251968 -2.121674 3.358149
v 8.251968 -2.121674 3.060251
vt 0.000000 0.000000
vt 0.198223 0.000000
vt 0.198223 1.000000
vt 0.000000 1.000000
vt 0.396446 0.000000
vt 0.396446 1.000000
vt 0.594669 0.000000
vt 0.594669 1.000000
vt 0.792893 0.000000
vt 0.792893 1.000000
vt 1.000000 0.082522
vt 0.896447 0.165044
vt 0.792893 0.082522
vt 0.896447 0.000000
vt 1.000000 0.917478
vt 0.792893 0.917478
vt 0.896447 0.834956
vt 0.896447 1.000000
vn -0.0000 1.0000 -0.0000
vn 0.0000 0.0000 -1.0000
vn 0.0000 -1.0000 -0.0000
vn 0.0000 0.0000 1.0000
vn 1.0000 0.0000 0.0000
vn -1.0000 0.0000 0.0000
usemtl None
s 1
f 57/57/38 58/58/39 59/59/39 60/60/38
f 58/58/39 61/61/40 62/62/40 59/59/39
f 61/61/40 63/63/41 64/64/41 62/62/40
f 63/63/41 65/65/38 66/66/38 64/64/41
f 67/67/42 68/68/42 69/69/42
f 69/69/42 70/70/42 67/67/42
f 71/71/43 72/72/43 73/73/43
f 72/72/43 71/71/43 74/74/43
o object_1.006
v -7.558044 2.707794 4.272135
v -7.558044 8.077744 2.304399
v -7.558044 8.077744 0.208498
v -7.558044 -0.817474 5.829924
v -7.558044 2.707794 5.829924
v -7.558044 -7.499725 0.208498
v -7.558044 -7.499725 7.469705
v -7.558044 -0.817474 7.469705
vt 0.347781 0.558468
vt 0.009804 0.292789
vt 0.009804 0.009804
vt 0.569630 0.768797
vt 0.347781 0.768797
vt 0.990196 0.009804
vt 0.990196 0.990196
vt 0.569630 0.990196
vn -1.0000 -0.0000 0.0000
usemtl None
s 1
f 75/75/44 76/76/44 77/77/44
f 78/78/44 79/79/44 75/75/44
f 75/75/44 77/77/44 80/80/44
f 81/81/44 78/78/44 80/80/44
f 75/75/44 80/80/44 78/78/44
f 78/78/44 81/81/44 82/82/44
o object_3.005
v 8.251968 8.077744 0.208498
v 8.251968 -7.499725 0.208498
v -7.558044 -7.499725 0.208498
v -7.558044 8.077744 0.208498
v 8.251968 -7.499725 0.208498
v 8.251968 -7.499725 7.469705
v -7.558044 -7.499725 7.469705
v -7.558044 -7.499725 0.208498
v 8.251968 -7.499725 7.469705
v 8.251968 -0.817474 7.469705
v -7.558044 -0.817474 7.469705
v -7.558044 -7.499725 7.469705
v 8.251968 -0.817474 7.469705
v 8.251968 -0.817474 5.829924
v -7.558044 -0.817474 5.829924
v -7.558044 -0.817474 7.469705
v 8.251968 -0.817474 5.829924
v 8.251968 2.707794 5.829924
v -7.558044 2.707794 5.829924
v -7.558044 -0.817474 5.829924
v 8.251968 2.707794 5.829924
v 8.251968 2.707794 4.272135
v -7.558044 2.707794 4.272135
v -7.558044 2.707794 5.829924
v 8.251968 2.707794 4.272135
v 8.251968 8.077744 2.304399
v -7.558044 8.077744 2.304399
v -7.558044 2.707794 4.272135
v 8.251968 8.077744 2.304399
v 8.251968 8.077744 0.208498
v -7.558044 8.077744 0.208498
v -7.558044 8.077744 2.304399
vt 0.000000 0.000000
vt 0.353564 0.000000
vt 0.353564 1.000000
vt 0.000000 1.000000
vt 0.353564 0.000000
vt 0.518368 0.000000
vt 0.518368 1.000000
vt 0.353564 1.000000
vt 0.518368 0.000000
vt 0.670039 0.000000
vt 0.670039 1.000000
vt 0.518368 1.000000
vt 0.670039 0.000000
vt 0.707256 0.000000
vt 0.707256 1.000000
vt 0.670039 1.000000
vt 0.707256 0.000000
vt 0.787263 0.000000
vt 0.787263 1.000000
vt 0.707256 1.000000
vt 0.787263 0.000000
vt 0.822619 0.000000
vt 0.822619 1.000000
vt 0.787263 1.000000
vt 0.822619 0.000000
vt 0.952430 0.000000
vt 0.952430 1.000000
vt 0.822619 1.000000
vt 0.952430 0.000000
vt 1.000000 0.000000
vt 1.000000 1.000000
vt 0.952430 1.000000
vn 0.0000 0.0000 -1.0000
vn 0.0000 -1.0000 0.0000
vn 0.0000 0.0000 1.0000
vn 0.0000 1.0000 0.0000
vn 0.0000 0.3441 0.9389
usemtl None
s 1
f 83/83/45 84/84/45 85/85/45 86/86/45
f 87/87/46 88/88/46 89/89/46 90/90/46
f 91/91/47 92/92/47 93/93/47 94/94/47
f 95/95/48 96/96/48 97/97/48 98/98/48
f 99/99/47 100/100/47 101/101/47 102/102/47
f 103/103/48 104/104/48 105/105/48 106/106/48
f 107/107/49 108/108/49 109/109/49 110/110/49
f 111/111/48 112/112/48 113/113/48 114/114/48
o object_2.004
v 8.251968 2.707794 4.272135
v 8.251968 8.077744 2.304399
v 8.251968 8.077744 0.208498
v 8.251968 -0.817474 5.829924
v 8.251968 2.707794 5.829924
v 8.251968 -7.499725 0.208498
v 8.251968 -7.499725 7.469705
v 8.251968 -0.817474 7.469705
vt 0.347781 0.558468
vt 0.009804 0.292789
vt 0.009804 0.009804
vt 0.569630 0.768797
vt 0.347781 0.768797
vt 0.990196 0.009804
vt 0.990196 0.990196
vt 0.569630 0.990196
vn -1.0000 0.0000 0.0000
usemtl None
s 1
f 115/115/50 116/116/50 117/117/50
f 118/118/50 119/119/50 115/115/50
f 115/115/50 117/117/50 120/120/50
f 121/121/50 118/118/50 120/120/50
f 115/115/50 120/120/50 118/118/50
f 118/118/50 121/121/50 122/122/50
o object_5.004
v 10.057220 -1.972641 3.816908
v 10.057220 -2.121674 3.667959
v 8.251968 -2.121674 3.667959
v 8.251968 -1.972641 3.816908
v 10.057220 -2.270706 3.816908
v 8.251968 -2.270706 3.816908
v 10.057220 -2.121674 3.965857
v 8.251968 -2.121674 3.965857
v 10.057220 -1.972641 3.816908
v 8.251968 -1.972641 3.816908
v 10.057220 -1.972641 3.816908
v 10.057220 -2.121674 3.965857
v 10.057220 -2.270706 3.816908
v 10.057220 -2.121674 3.667959
v 8.251968 -1.972641 3.816908
v 8.251968 -2.270706 3.816908
v 8.251968 -2.121674 3.965857
v 8.251968 -2.121674 3.667959
vt 0.000000 0.000000
vt 0.198223 0.000000
vt 0.198223 1.000000
vt 0.000000 1.000000
vt 0.396446 0.000000
vt 0.396446 1.000000
vt 0.594669 0.000000
vt 0.594669 1.000000
vt 0.792893 0.000000
vt 0.792893 1.000000
vt 1.000000 0.082522
vt 0.896447 0.165044
vt 0.792893 0.082522
vt 0.896447 0.000000
vt 1.000000 0.917478
vt 0.792893 0.917478
vt 0.896447 0.834956
vt 0.896447 1.000000
vn -0.0000 1.0000 -0.0000
vn 0.0000 0.0000 -1.0000
vn 0.0000 -1.0000 -0.0000
vn 0.0000 0.0000 1.0000
vn 1.0000 0.0000 0.0000
vn -1.0000 0.0000 0.0000
usemtl None
s 1
f 123/123/51 124/124/52 125/125/52 126/126/51
f 124/124/52 127/127/53 128/128/53 125/125/52
f 127/127/53 129/129/54 130/130/54 128/128/53
f 129/129/54 131/131/51 132/132/51 130/130/54
f 133/133/55 134/134/55 135/135/55
f 135/135/55 136/136/55 133/133/55
f 137/137/56 138/138/56 139/139/56
f 138/138/56 137/137/56 140/140/56
