# Blender v2.79 (sub 0) OBJ File: ''
# www.blender.org
mtllib maison.mtl
o object_1.007
v -17.217522 -82.130081 15.753100
v -8.663883 -82.130081 25.063700
v -8.663883 -67.450981 25.063700
v -17.217522 -67.450981 15.753100
v -0.110223 -67.450981 15.753100
v -8.663883 -67.450981 25.063700
v -8.663883 -82.130081 25.063700
v -0.110223 -82.130081 15.753100
v -8.663883 -67.450981 25.063700
v -0.110223 -67.450981 15.753100
v -17.217522 -67.450981 15.753100
v -8.663883 -82.130081 25.063700
v -17.217522 -82.130081 15.753100
v -0.110223 -82.130081 15.753100
v -17.217522 -67.450981 0.093475
v -0.110223 -67.450981 0.093475
v -0.110223 -82.130081 0.093475
v -17.217522 -82.130081 0.093475
v -17.217522 -82.130081 0.093475
v -0.110223 -82.130081 0.093475
v -0.110223 -82.130081 15.753100
v -17.217522 -82.130081 15.753100
v -17.217522 -67.450981 15.753100
v -0.110223 -67.450981 15.753100
v -0.110223 -67.450981 0.093475
v -17.217522 -67.450981 0.093475
v -0.110223 -67.450981 15.753100
v -0.110223 -82.130081 15.753100
v -0.110223 -82.130081 0.093475
v -0.110223 -67.450981 0.093475
v -17.217522 -67.450981 15.753100
v -17.217522 -67.450981 0.093475
v -17.217522 -82.130081 0.093475
v -17.217522 -82.130081 15.753100
vt 0.385015 0.299081
vt 0.641303 0.299081
vt 0.641303 0.002961
vt 0.385015 0.002961
vt 0.692398 0.002961
vt 0.948686 0.002961
vt 0.948686 0.299081
vt 0.692398 0.299081
vt 0.194380 0.634555
vt 0.381677 0.807943
vt 0.381677 0.461167
vt 0.001873 0.634555
vt 0.189170 0.461167
vt 0.189170 0.807943
vt 0.385015 0.966248
vt 0.385015 0.620936
vt 0.681105 0.620936
vt 0.681105 0.966248
vt 0.000000 0.000000
vt 0.346776 0.000000
vt 0.346776 0.317430
vt 0.000000 0.317430
vt 0.682570 0.966248
vt 0.682570 0.620936
vt 0.998535 0.620936
vt 0.998535 0.966248
vt 0.692507 0.619471
vt 0.990063 0.619471
vt 0.990063 0.303507
vt 0.692507 0.303507
vt 0.385015 0.619471
vt 0.385015 0.303507
vt 0.682570 0.303507
vt 0.682570 0.619471
vn -0.7364 0.0000 0.6765
vn 0.7364 0.0000 0.6765
vn 0.0000 1.0000 -0.0000
vn 0.0000 -1.0000 0.0000
vn 0.0000 0.0000 -1.0000
vn 1.0000 0.0000 0.0000
vn -1.0000 0.0000 0.0000
usemtl None
s 1
f 1/1/1 2/2/1 3/3/1 4/4/1
f 5/5/2 6/6/2 7/7/2 8/8/2
f 9/9/3 10/10/3 11/11/3
f 12/12/4 13/13/4 14/14/4
f 15/15/5 16/16/5 17/17/5 18/18/5
f 19/19/4 20/20/4 21/21/4 22/22/4
f 23/23/3 24/24/3 25/25/3 26/26/3
f 27/27/6 28/28/6 29/29/6 30/30/6
f 31/31/7 32/32/7 33/33/7 34/34/7
