# Blender v2.80 (sub 41) OBJ File: 'modeles.blend'
# www.blender.org
mtllib nuage0.mtl
o Icosphere
v 0.207108 5.926586 -0.929016
v -1.912048 1.996774 -2.620762
v -3.221788 3.354787 1.174492
v 0.207108 4.194106 3.520147
v 3.636005 3.354788 1.174493
v 2.326266 1.996774 -2.620762
v -3.221787 -2.164491 0.782851
v -1.912048 -0.806478 4.578106
v 2.326265 -0.806478 4.578106
v 3.636006 -2.164491 0.782852
v 0.207109 -3.003810 -1.562803
v 0.207109 -4.736290 2.886360
vt 0.818181 0.000000
vt 0.727272 0.157461
vt 0.909090 0.157461
vt 0.636363 0.000000
vt 0.545454 0.157461
vt 0.090909 0.000000
vt 0.000000 0.157461
vt 0.181818 0.157461
vt 0.272727 0.000000
vt 0.363636 0.157461
vt 0.454545 0.000000
vt 0.636363 0.314921
vt 0.818181 0.314921
vt 0.090909 0.314921
vt 0.272727 0.314921
vt 0.454545 0.314921
vt 1.000000 0.314921
vt 0.727272 0.472382
vt 0.909090 0.472382
vt 0.181818 0.472382
vt 0.363636 0.472382
vt 0.545454 0.472382
vn -0.6958 0.5657 -0.4425
vn 0.0000 0.3954 -0.9185
vn -0.4300 0.8413 0.3276
vn 0.4300 0.8413 0.3276
vn 0.6958 0.5657 -0.4425
vn 0.0000 -0.2070 -0.9783
vn -0.9424 0.0237 -0.3337
vn -0.5824 0.3969 0.7094
vn 0.5824 0.3969 0.7094
vn 0.9424 0.0237 -0.3337
vn -0.5824 -0.3969 -0.7094
vn -0.9424 -0.0237 0.3337
vn -0.0000 0.2070 0.9783
vn 0.9424 -0.0237 0.3337
vn 0.5824 -0.3969 -0.7094
vn -0.4300 -0.8413 -0.3276
vn -0.6958 -0.5657 0.4425
vn -0.0000 -0.3954 0.9185
vn 0.6958 -0.5657 0.4425
vn 0.4300 -0.8413 -0.3276
usemtl Material
s off
f 1/1/1 2/2/1 3/3/1
f 2/2/2 1/4/2 6/5/2
f 1/6/3 3/7/3 4/8/3
f 1/9/4 4/8/4 5/10/4
f 1/11/5 5/10/5 6/5/5
f 2/2/6 6/5/6 11/12/6
f 3/3/7 2/2/7 7/13/7
f 4/8/8 3/7/8 8/14/8
f 5/10/9 4/8/9 9/15/9
f 6/5/10 5/10/10 10/16/10
f 2/2/11 11/12/11 7/13/11
f 3/3/12 7/13/12 8/17/12
f 4/8/13 8/14/13 9/15/13
f 5/10/14 9/15/14 10/16/14
f 6/5/15 10/16/15 11/12/15
f 7/13/16 11/12/16 12/18/16
f 8/17/17 7/13/17 12/19/17
f 9/15/18 8/14/18 12/20/18
f 10/16/19 9/15/19 12/21/19
f 11/12/20 10/16/20 12/22/20
o Icosphere.001
v -3.311823 7.823210 -1.507615
v -2.524850 4.338740 -2.861168
v -4.028695 4.469622 0.175385
v -2.401288 6.778069 2.052125
v 0.108357 8.073856 0.175386
v 0.031967 6.566260 -2.861168
v -1.127941 1.140046 -0.137964
v -1.051552 2.647641 2.898590
v 1.505265 4.875162 2.898591
v 3.009111 4.744280 -0.137963
v 1.381704 2.435833 -2.014703
v 2.292239 1.390692 1.545038
vt 0.818181 0.000000
vt 0.727272 0.157461
vt 0.909090 0.157461
vt 0.636363 0.000000
vt 0.545454 0.157461
vt 0.090909 0.000000
vt 0.000000 0.157461
vt 0.181818 0.157461
vt 0.272727 0.000000
vt 0.363636 0.157461
vt 0.454545 0.000000
vt 0.636363 0.314921
vt 0.818181 0.314921
vt 0.090909 0.314921
vt 0.272727 0.314921
vt 0.454545 0.314921
vt 1.000000 0.314921
vt 0.727272 0.472382
vt 0.909090 0.472382
vt 0.181818 0.472382
vt 0.363636 0.472382
vt 0.545454 0.472382
vn -0.8962 -0.0305 -0.4425
vn -0.2597 0.2981 -0.9185
vn -0.8769 0.3518 0.3276
vn -0.2284 0.9168 0.3276
vn 0.1530 0.8836 -0.4425
vn 0.1360 -0.1561 -0.9783
vn -0.7261 -0.6012 -0.3337
vn -0.6999 -0.0833 0.7094
vn 0.1784 0.6819 0.7094
vn 0.6950 0.6369 -0.3337
vn -0.1784 -0.6819 -0.7094
vn -0.6950 -0.6369 0.3337
vn -0.1360 0.1561 0.9783
vn 0.7261 0.6012 0.3337
vn 0.6999 0.0833 -0.7094
vn 0.2284 -0.9168 -0.3276
vn -0.1530 -0.8836 0.4425
vn 0.2597 -0.2981 0.9185
vn 0.8962 0.0305 0.4425
vn 0.8769 -0.3518 -0.3276
usemtl Material
s off
f 13/23/21 14/24/21 15/25/21
f 14/24/22 13/26/22 18/27/22
f 13/28/23 15/29/23 16/30/23
f 13/31/24 16/30/24 17/32/24
f 13/33/25 17/32/25 18/27/25
f 14/24/26 18/27/26 23/34/26
f 15/25/27 14/24/27 19/35/27
f 16/30/28 15/29/28 20/36/28
f 17/32/29 16/30/29 21/37/29
f 18/27/30 17/32/30 22/38/30
f 14/24/31 23/34/31 19/35/31
f 15/25/32 19/35/32 20/39/32
f 16/30/33 20/36/33 21/37/33
f 17/32/34 21/37/34 22/38/34
f 18/27/35 22/38/35 23/34/35
f 19/35/36 23/34/36 24/40/36
f 20/39/37 19/35/37 24/41/37
f 21/37/38 20/36/38 24/42/38
f 22/38/39 21/37/39 24/43/39
f 23/34/40 22/38/40 24/44/40
o Icosphere.002
v 0.207109 -4.087320 -1.849644
v 3.015427 -6.595652 -0.286193
v 0.803136 -9.226410 -0.286193
v -2.232878 -4.755102 -0.286193
v -1.896872 0.639068 -0.286193
v 1.346744 -0.498503 -0.286193
v 2.311090 -8.813709 2.243537
v -0.932527 -7.676138 2.243537
v -2.601209 -1.578989 2.243537
v -0.388919 1.051769 2.243537
v 2.647095 -3.419539 2.243537
v 0.207109 -4.087320 3.806988
vt 0.818181 0.000000
vt 0.727272 0.157461
vt 0.909090 0.157461
vt 0.636363 0.000000
vt 0.545454 0.157461
vt 0.090909 0.000000
vt 0.000000 0.157461
vt 0.181818 0.157461
vt 0.272727 0.000000
vt 0.363636 0.157461
vt 0.454545 0.000000
vt 0.636363 0.314921
vt 0.818181 0.314921
vt 0.090909 0.314921
vt 0.272727 0.314921
vt 0.454545 0.314921
vt 1.000000 0.314921
vt 0.727272 0.472382
vt 0.909090 0.472382
vt 0.181818 0.472382
vt 0.363636 0.472382
vt 0.545454 0.472382
vn 0.2936 -0.2469 -0.9235
vn 0.5855 0.1602 -0.7947
vn -0.4524 -0.3072 -0.8372
vn -0.5458 0.0340 -0.8372
vn 0.1270 0.3620 -0.9235
vn 0.9474 0.2593 -0.1876
vn 0.7221 -0.6072 -0.3314
vn -0.8074 -0.5482 -0.2180
vn -0.9741 0.0607 -0.2180
vn 0.3122 0.8903 -0.3314
vn 0.9741 -0.0607 0.2180
vn -0.3122 -0.8903 0.3314
vn -0.9474 -0.2593 0.1876
vn -0.7221 0.6072 0.3314
vn 0.8074 0.5482 0.2180
vn 0.5458 -0.0340 0.8372
vn -0.1270 -0.3620 0.9235
vn -0.5855 -0.1602 0.7947
vn -0.2936 0.2469 0.9235
vn 0.4524 0.3072 0.8372
usemtl Material
s off
f 25/45/41 26/46/41 27/47/41
f 26/46/42 25/48/42 30/49/42
f 25/50/43 27/51/43 28/52/43
f 25/53/44 28/52/44 29/54/44
f 25/55/45 29/54/45 30/49/45
f 26/46/46 30/49/46 35/56/46
f 27/47/47 26/46/47 31/57/47
f 28/52/48 27/51/48 32/58/48
f 29/54/49 28/52/49 33/59/49
f 30/49/50 29/54/50 34/60/50
f 26/46/51 35/56/51 31/57/51
f 27/47/52 31/57/52 32/61/52
f 28/52/53 32/58/53 33/59/53
f 29/54/54 33/59/54 34/60/54
f 30/49/55 34/60/55 35/56/55
f 31/57/56 35/56/56 36/62/56
f 32/61/57 31/57/57 36/63/57
f 33/59/58 32/58/58 36/64/58
f 34/60/59 33/59/59 36/65/59
f 35/56/60 34/60/60 36/66/60
