# Blender v2.80 (sub 41) OBJ File: 'modeles.blend'
# www.blender.org
mtllib nuage1.mtl
o Icosphere.006
v 0.546783 -0.321077 -2.347240
v -2.166430 -4.055557 -0.302200
v -2.032028 0.516799 0.649992
v 0.546783 2.274091 0.708212
v 4.053681 0.818337 0.162058
v 2.352948 -2.807090 0.469364
v -1.932106 -1.126489 3.309030
v -2.163655 3.409583 4.311396
v 2.572439 2.467045 3.728898
v 3.710728 -1.349065 3.669193
v 0.546783 -3.401194 3.545810
v 0.546783 -0.321077 6.358796
v -0.463646 0.007224 0.286708
v -0.642622 -1.958169 -1.268492
v -3.080783 -1.499755 -0.351578
v 0.546783 -5.724398 -1.333599
v 1.925431 -2.218644 -1.789459
v 0.546783 1.520808 -0.974505
v -1.507644 2.506580 -0.154378
v 3.053160 0.493273 -2.258406
v 1.923637 1.573993 0.558060
v 3.497323 -1.279775 0.088382
v -0.834849 -4.573456 2.005778
v 1.282673 -2.585978 2.005778
v -3.806236 -0.321077 2.005778
v -2.966049 -2.873220 2.005778
v -1.372299 5.585480 2.005778
v -3.601277 2.692563 2.005778
v 4.077949 2.244385 2.005778
v 1.639392 3.041743 2.005778
v 3.586288 -2.529344 2.005778
v 4.899801 -0.321077 2.005778
v -1.026862 -2.487003 3.660412
v -1.853468 0.458820 3.565572
v 0.546783 2.936920 4.019308
v 3.087165 0.504352 3.656636
v 1.928272 -2.222528 3.458370
v -0.581692 -0.687733 3.925684
v 0.546783 -3.611728 7.330276
v -0.257645 0.786134 4.220249
v 1.798113 1.401249 5.450523
v 2.725936 -1.029109 5.713243
vt 0.818181 0.000000
vt 0.772726 0.078731
vt 0.863635 0.078731
vt 0.727272 0.157461
vt 0.681818 0.078731
vt 0.636363 0.157461
vt 0.090909 0.000000
vt 0.045454 0.078731
vt 0.136363 0.078731
vt 0.272727 0.000000
vt 0.227273 0.078731
vt 0.318182 0.078731
vt 0.454545 0.000000
vt 0.409090 0.078731
vt 0.500000 0.078731
vt 0.681818 0.236191
vt 0.909090 0.157461
vt 0.818181 0.157461
vt 0.863635 0.236191
vt 0.181818 0.157461
vt 0.090909 0.157461
vt 0.136363 0.236191
vt 0.363636 0.157461
vt 0.272727 0.157461
vt 0.318182 0.236191
vt 0.545454 0.157461
vt 0.454545 0.157461
vt 0.500000 0.236191
vt 0.772726 0.236191
vt 0.954545 0.236191
vt 0.227273 0.236191
vt 0.409090 0.236191
vt 0.590909 0.236191
vt 0.818181 0.314921
vt 0.727272 0.314921
vt 0.772726 0.393651
vt 1.000000 0.314921
vt 0.909091 0.314921
vt 0.954545 0.393651
vt 0.272727 0.314921
vt 0.181818 0.314921
vt 0.227273 0.393651
vt 0.454545 0.314921
vt 0.363636 0.314921
vt 0.409090 0.393651
vt 0.636363 0.314921
vt 0.545454 0.314921
vt 0.590909 0.393651
vt 0.500000 0.393651
vt 0.545454 0.472382
vt 0.318182 0.393651
vt 0.363636 0.472382
vt 0.136363 0.393651
vt 0.181818 0.472382
vt 0.090909 0.314921
vt 0.863635 0.393651
vt 0.909090 0.472382
vt 0.681818 0.393651
vt 0.727272 0.472382
vt 0.045454 0.236191
vt 0.000000 0.157461
vt 0.590909 0.078731
vt 0.636363 0.000000
vn -0.8501 0.3722 -0.3725
vn -0.4141 -0.1152 -0.9029
vn -0.8845 0.2788 -0.3741
vn -0.1635 0.5895 -0.7910
vn 0.1030 -0.2109 -0.9721
vn -0.4960 -0.8634 0.0924
vn -0.6493 0.5813 -0.4904
vn 0.3800 0.5200 -0.7650
vn 0.1640 0.7792 -0.6049
vn 0.6692 -0.6080 -0.4273
vn -0.6133 -0.7688 0.1813
vn -0.6191 0.0421 -0.7842
vn 0.4573 0.5415 -0.7054
vn 0.9242 0.2961 -0.2412
vn 0.0243 -0.9870 0.1589
vn -0.4059 -0.0342 0.9133
vn -0.3193 -0.2636 0.9102
vn 0.2617 0.7635 0.5904
vn 0.8774 0.2977 0.3761
vn 0.6469 -0.7614 -0.0424
vn 0.3520 0.2650 0.8977
vn 0.7797 -0.6238 0.0544
vn 0.3858 -0.8648 0.3212
vn 0.3443 0.2299 0.9103
vn 0.8331 0.3632 0.4171
vn 0.8404 0.2019 0.5030
vn -0.5206 0.6624 0.5388
vn -0.5533 0.2802 0.7844
vn 0.1155 0.0495 0.9921
vn -0.9075 0.1190 0.4029
vn -0.3586 -0.1065 0.9274
vn -0.3767 -0.1297 0.9172
vn -0.9075 0.1190 0.4030
vn -0.8894 0.1567 0.4294
vn -0.5044 -0.8622 -0.0480
vn 0.6426 -0.7602 -0.0954
vn 0.0239 -0.9723 0.2326
vn 0.3210 -0.7836 0.5320
vn 0.7114 0.2438 0.6592
vn 0.7103 0.2275 0.6661
vn 0.7526 0.1740 0.6351
vn 0.2470 0.9515 0.1836
vn 0.6012 0.7118 0.3633
vn 0.1947 0.6791 0.7077
vn -0.7934 -0.2262 0.5651
vn -0.6340 0.0431 0.7721
vn -0.5965 -0.0993 0.7964
vn -0.6104 -0.2088 0.7641
vn -0.4605 -0.5772 0.6744
vn -0.3006 -0.6095 0.7336
vn 0.8236 -0.4899 0.2860
vn 0.8052 -0.4790 -0.3495
vn 0.8360 -0.2038 -0.5096
vn 0.3074 0.9401 0.1471
vn 0.2307 0.7056 -0.6700
vn 0.2849 0.7005 -0.6543
vn -0.7579 0.5839 0.2910
vn -0.6124 0.4719 -0.6342
vn -0.7190 -0.0891 -0.6892
vn -0.6163 -0.2029 0.7609
vn -0.9412 -0.3098 -0.1347
vn -0.9299 -0.3356 -0.1503
vn 0.6832 -0.7279 -0.0589
vn 0.6036 -0.6431 0.4714
vn 0.5706 -0.6574 0.4921
vn 0.7265 -0.6189 -0.2987
vn 0.7902 -0.4077 -0.4576
vn 0.9100 -0.2292 -0.3454
vn 0.2841 0.9277 -0.2420
vn 0.2506 0.9332 -0.2576
vn 0.3869 0.8416 -0.3768
vn 0.2650 0.8801 -0.3940
vn -0.4860 -0.3447 -0.8031
vn -0.3037 -0.2872 -0.9084
vn 0.8845 -0.3826 -0.2671
vn -0.2032 -0.0473 -0.9780
vn -0.2212 -0.4195 -0.8804
vn -0.0531 0.4662 -0.8831
vn -0.1710 0.6209 -0.7650
vn -0.3727 -0.1510 -0.9156
usemtl Material
s off
f 1/1/1 14/2/1 13/3/1
f 2/4/2 14/5/2 16/6/2
f 1/7/3 13/8/3 18/9/3
f 1/10/4 18/11/4 20/12/4
f 1/13/5 20/14/5 17/15/5
f 2/4/6 16/6/6 23/16/6
f 3/17/7 15/18/7 25/19/7
f 4/20/8 19/21/8 27/22/8
f 5/23/9 21/24/9 29/25/9
f 6/26/10 22/27/10 31/28/10
f 2/4/11 23/16/11 26/29/11
f 3/17/12 25/19/12 28/30/12
f 4/20/13 27/22/13 30/31/13
f 5/23/14 29/25/14 32/32/14
f 6/26/15 31/28/15 24/33/15
f 7/34/16 33/35/16 38/36/16
f 8/37/17 34/38/17 40/39/17
f 9/40/18 35/41/18 41/42/18
f 10/43/19 36/44/19 42/45/19
f 11/46/20 37/47/20 39/48/20
f 39/48/21 42/49/21 12/50/21
f 39/48/22 37/47/22 42/49/22
f 37/47/23 10/43/23 42/49/23
f 42/45/24 41/51/24 12/52/24
f 42/45/25 36/44/25 41/51/25
f 36/44/26 9/40/26 41/51/26
f 41/42/27 40/53/27 12/54/27
f 41/42/28 35/41/28 40/53/28
f 35/41/29 8/55/29 40/53/29
f 40/39/30 38/56/30 12/57/30
f 40/39/31 34/38/31 38/56/31
f 34/38/32 7/34/32 38/56/32
f 38/36/33 39/58/33 12/59/33
f 38/36/34 33/35/34 39/58/34
f 33/35/35 11/46/35 39/58/35
f 24/33/36 37/47/36 11/46/36
f 24/33/37 31/28/37 37/47/37
f 31/28/38 10/43/38 37/47/38
f 32/32/39 36/44/39 10/43/39
f 32/32/40 29/25/40 36/44/40
f 29/25/41 9/40/41 36/44/41
f 30/31/42 35/41/42 9/40/42
f 30/31/43 27/22/43 35/41/43
f 27/22/44 8/55/44 35/41/44
f 28/30/45 34/38/45 8/37/45
f 28/30/46 25/19/46 34/38/46
f 25/19/47 7/34/47 34/38/47
f 26/29/48 33/35/48 7/34/48
f 26/29/49 23/16/49 33/35/49
f 23/16/50 11/46/50 33/35/50
f 31/28/51 32/32/51 10/43/51
f 31/28/52 22/27/52 32/32/52
f 22/27/53 5/23/53 32/32/53
f 29/25/54 30/31/54 9/40/54
f 29/25/55 21/24/55 30/31/55
f 21/24/56 4/20/56 30/31/56
f 27/22/57 28/60/57 8/55/57
f 27/22/58 19/21/58 28/60/58
f 19/21/59 3/61/59 28/60/59
f 25/19/60 26/29/60 7/34/60
f 25/19/61 15/18/61 26/29/61
f 15/18/62 2/4/62 26/29/62
f 23/16/63 24/33/63 11/46/63
f 23/16/64 16/6/64 24/33/64
f 16/6/65 6/26/65 24/33/65
f 17/15/66 22/27/66 6/26/66
f 17/15/67 20/14/67 22/27/67
f 20/14/68 5/23/68 22/27/68
f 20/12/69 21/24/69 5/23/69
f 20/12/70 18/11/70 21/24/70
f 18/11/71 4/20/71 21/24/71
f 18/9/72 19/21/72 4/20/72
f 18/9/73 13/8/73 19/21/73
f 13/8/74 3/61/74 19/21/74
f 16/6/75 17/62/75 6/26/75
f 16/6/76 14/5/76 17/62/76
f 14/5/77 1/63/77 17/62/77
f 13/3/78 15/18/78 3/17/78
f 13/3/79 14/2/79 15/18/79
f 14/2/80 2/4/80 15/18/80
